<svg width="55" height="74" viewBox="0 0 55 74" fill="none" xmlns="http://www.w3.org/2000/svg">
<path d="M54.446 46.185C54.446 44.3275 54.2994 43.0002 53.5255 42.5031C53.4522 42.4622 53.379 42.4378 53.3057 42.3975C53.5665 42.2997 53.8187 42.1855 54.0795 42.0389C54.7392 41.5912 55 40.4423 55 37.9581C55 35.474 54.7392 34.3251 54.0386 33.8529C53.8352 33.7387 53.6233 33.633 53.4193 33.5518C53.4193 33.5518 53.4272 33.5518 53.4272 33.5438C54.0545 33.1205 54.2989 32.0449 54.2989 29.7232C54.2989 27.4016 54.0545 26.3265 53.3863 25.8782C52.6693 25.4628 51.904 25.2589 51.1056 25.2589C50.4783 25.2589 49.9084 25.389 49.4033 25.6254L49.4044 3.64094C49.4124 1.63756 47.7833 0 45.7713 0H17.4333C15.4214 0 13.7924 1.63756 13.7924 3.64094V22.1155C11.7396 24.3797 8.64453 28.4525 5.56549 35.01C1.32963 44.0352 6.08708 57.0278 6.89335 59.0962L0.0670422 72.4226C-0.0875061 72.7237 0.034655 73.0908 0.335804 73.2453C0.425579 73.2942 0.523313 73.3107 0.612507 73.3107C0.832395 73.3107 1.05228 73.1885 1.15854 72.9766L8.10703 59.4058C8.18829 59.2513 8.19681 59.0638 8.13147 58.8928C8.07465 58.7541 2.38081 44.6624 6.67355 35.5236C10.8361 26.6609 15.1203 22.3683 16.4726 21.1466C17.1078 21.9938 18.297 24.0382 17.6209 26.8405C16.5703 31.231 14.1344 33.8946 14.11 33.9191C14.102 33.927 14.0935 33.9435 14.0855 33.9515C14.0611 33.9838 14.0446 34.0083 14.0287 34.0412C14.0123 34.0736 13.9878 34.1145 13.9799 34.1469C13.9719 34.1793 13.9634 34.2202 13.9554 34.2526C13.9554 34.277 13.939 34.3015 13.939 34.3259V42.9278C13.939 43.1477 14.0532 43.3511 14.2486 43.4574C14.3543 43.5142 24.5772 49.6563 24.5772 68.0571C24.5772 68.3912 24.854 68.6679 25.1881 68.6679C25.5222 68.6679 25.7989 68.3912 25.7989 68.0571C25.7989 67.5111 25.7909 66.9821 25.7744 66.4525H29.2279L26.4499 72.4396C26.3113 72.7492 26.442 73.1078 26.7511 73.2544C26.8323 73.2953 26.9221 73.3112 27.0034 73.3112C27.2312 73.3112 27.4511 73.1811 27.5573 72.9612L30.5711 66.461H45.7626C47.7746 66.461 49.4036 64.8234 49.4036 62.82V57.6966C49.8269 57.8432 50.2831 57.9409 50.7882 57.9409C51.5701 57.9409 52.3281 57.7455 53.0769 57.3301C53.8098 56.858 53.9564 55.5215 53.9564 53.6726C53.9564 51.897 53.8098 50.6016 53.1257 50.0639C53.2723 49.9986 53.411 49.9338 53.5576 49.8605C54.2996 49.3702 54.4462 48.0429 54.4462 46.1854L54.446 46.185ZM53.7784 37.958C53.7784 40.483 53.4773 40.9473 53.4363 41.0046C52.8579 41.3387 52.2471 41.5098 51.6119 41.5098C49.3966 41.5098 48.6141 39.6036 48.6141 37.9666C48.6141 36.329 49.396 34.4234 51.6119 34.4234C52.2471 34.4234 52.8579 34.5944 53.3875 34.8956C53.4772 34.9683 53.7784 35.4331 53.7784 37.9582L53.7784 37.958ZM51.1148 26.4806C51.6932 26.4806 52.2551 26.6351 52.7359 26.9039C52.8172 26.9851 53.0859 27.4255 53.0859 29.7221C53.0859 32.0193 52.8171 32.4591 52.7848 32.5079C52.2552 32.8091 51.6933 32.9642 51.1149 32.9642C49.0949 32.9642 48.378 31.213 48.378 29.7221C48.378 28.2323 49.0951 26.4806 51.1149 26.4806L51.1148 26.4806ZM18.8087 27.1323C19.8514 22.7829 17.09 19.9725 16.9757 19.8583C16.7558 19.6464 16.4137 19.6219 16.1774 19.8094C16.1205 19.8503 15.6967 20.1924 15.0126 20.8441L15.0131 3.64087C15.0131 2.30505 16.0967 1.22148 17.4325 1.22148H45.7705C47.1063 1.22148 48.1899 2.30502 48.1899 3.64087V26.4398C48.1899 26.4722 48.2064 26.5052 48.2143 26.5376C47.5461 27.3194 47.1552 28.4109 47.1552 29.7224C47.1552 30.9849 47.5217 32.044 48.149 32.8178C46.145 31.7508 43.5955 30.7081 41.4369 29.8934C44.679 27.7268 45.2164 23.7678 43.7176 15.019C42.325 6.87335 36.8669 3.22382 32.0777 3.22382C27.2878 3.22382 21.8304 6.87335 20.4378 15.019C18.9388 23.8084 19.4849 27.759 22.7753 29.9254C20.8122 30.6828 18.515 31.6277 16.5683 32.5647C17.3587 31.2783 18.2548 29.446 18.8081 27.1322L18.8087 27.1323ZM32.9822 57.5154V58.4438H31.1736V57.5154C31.1816 49.9483 31.198 37.5834 28.9827 32.8022C29.2106 32.6477 29.4305 32.5335 29.6345 32.4767C29.8379 32.4278 30.0009 32.4522 30.164 32.542C31.1742 33.9676 31.4833 35.0426 31.4919 35.0591C31.5652 35.3279 31.8015 35.5069 32.0782 35.5154C32.3549 35.5154 32.5913 35.3279 32.6646 35.0677C32.6726 35.0512 32.9822 33.9762 33.9925 32.5505C34.147 32.4608 34.318 32.4363 34.522 32.4852C34.7254 32.534 34.9453 32.6483 35.1737 32.8108C32.9578 37.5835 32.9743 49.9485 32.9823 57.5152L32.9822 57.5154ZM32.0782 27.8247C28.3231 27.8247 25.3338 23.8741 24.3236 19.9723C24.2503 19.7036 24.0549 19.5161 23.7776 19.5161C23.7367 19.5081 22.7185 19.353 22.7185 17.7075C22.7185 16.5995 23.3134 15.8988 23.5168 15.85C23.802 15.7931 24.0054 15.5323 24.0054 15.2471H24.0299C24.0299 14.6198 24.0787 13.9925 24.1844 13.3982C26.4408 13.2272 27.8987 11.9567 28.7049 10.9544C29.2016 12.1601 30.0976 13.121 31.3521 13.7726C33.9016 15.092 37.6244 14.9294 40.0518 14.0249C40.0927 14.4238 40.1171 14.8312 40.1171 15.2465H40.1336C40.1336 15.5317 40.337 15.7925 40.6222 15.8494C40.8257 15.8903 41.4206 16.5988 41.4206 17.7068C41.4206 19.3603 40.4024 19.5155 40.4103 19.5155C40.1336 19.5155 39.8887 19.703 39.8154 19.9717C38.8228 23.874 35.8335 27.8247 32.0784 27.8247L32.0782 27.8247ZM36.1675 27.6781V28.5906C33.9277 30.3093 32.7054 32.1174 32.0782 33.3231C31.4509 32.1174 30.2293 30.3093 27.989 28.5906V27.6781C29.2106 28.5253 30.5873 29.0463 32.0782 29.0463C33.5686 29.0463 34.9533 28.5253 36.1675 27.6781ZM29.2025 31.3435C28.0542 31.702 26.9384 32.9646 26.1315 34.0804V29.9832C26.6281 29.8042 27.0196 29.6655 27.2719 29.5758C28.0378 30.1707 28.673 30.765 29.2025 31.3434L29.2025 31.3435ZM34.9618 31.3435C35.4834 30.765 36.1266 30.1622 36.9004 29.5679C37.1527 29.6491 37.5357 29.7798 38.0328 29.9588V34.0805C37.2345 32.9645 36.1101 31.71 34.9618 31.3435L34.9618 31.3435ZM37.3892 28.4519V26.6678C39.0346 25.0711 40.2727 22.8638 40.9159 20.6319C41.6085 20.3875 42.6591 19.6381 42.6591 17.6994C42.6591 16.4613 42.0886 15.3045 41.3312 14.8403C41.3147 14.2295 41.2579 13.6187 41.1522 13.0317C41.1198 12.8442 40.9977 12.6817 40.8267 12.5999C40.6556 12.5186 40.4522 12.5186 40.2806 12.5999C38.472 13.5124 34.5624 14.0499 31.9231 12.6811C30.5708 11.9805 29.7725 10.8811 29.5526 9.39874C29.5117 9.12998 29.3003 8.92657 29.0395 8.88567C28.7787 8.84477 28.51 8.9834 28.3957 9.22773C28.3389 9.34989 26.9457 12.1846 23.6877 12.1846C23.4025 12.1846 23.1502 12.38 23.0928 12.6653C22.9383 13.3659 22.865 14.0988 22.8405 14.8403C22.0832 15.2966 21.5127 16.4614 21.5127 17.6994C21.5127 19.6381 22.5553 20.3875 23.2558 20.6318C23.8996 22.8637 25.1378 25.0712 26.7826 26.6677V28.4519C26.286 28.6229 25.3814 28.9485 24.2655 29.3644C21.1295 27.8246 19.9563 25.153 21.6586 15.2238C22.9291 7.7787 27.8167 4.44685 32.0928 4.44685C36.369 4.44685 41.2566 7.77812 42.527 15.2238C44.2135 25.1047 43.0645 27.7922 39.969 29.34C38.8224 28.932 37.9019 28.6144 37.3889 28.4519L37.3892 28.4519ZM22.89 42.9267C23.8184 42.9267 24.5764 43.6841 24.5764 44.6131C24.5764 45.5415 23.819 46.2995 22.89 46.2995C21.9616 46.2995 21.2036 45.5421 21.2036 44.6131C21.2036 43.6841 21.9615 42.9267 22.89 42.9267ZM15.1677 42.5846V34.6834C17.0252 33.6084 19.819 32.4106 22.2871 31.4333V41.7619C20.9757 42.0471 19.9899 43.2119 19.9899 44.6046C19.9899 46.2091 21.2933 47.5126 22.8978 47.5126C24.5024 47.5126 25.8058 46.2091 25.8058 44.6046C25.8058 43.2119 24.82 42.0466 23.5086 41.7619V30.9527C24.0052 30.7652 24.478 30.5862 24.9098 30.4231V36.1738C24.9098 36.4505 25.0973 36.6954 25.366 36.7687C25.4149 36.7852 25.4638 36.7852 25.5206 36.7852C25.7405 36.7852 25.9439 36.663 26.0581 36.4675C26.5058 35.6527 27.2553 34.5209 28.0376 33.6652C29.9843 38.3976 29.9683 50.6735 29.9598 57.5071V58.4355H24.7955C22.4256 47.9358 16.601 43.529 15.1676 42.585L15.1677 42.5846ZM48.1894 62.8104C48.1894 64.1463 47.1058 65.2298 45.77 65.2298H25.7158C25.6016 63.2179 25.3658 61.369 25.0396 59.6667L48.1892 59.6661L48.1894 62.8104ZM48.1894 58.4444H34.2039V57.516C34.196 50.6818 34.1795 38.4058 36.1262 33.6741C36.908 34.5292 37.6574 35.6616 38.1057 36.4765C38.2114 36.6719 38.4233 36.7941 38.6432 36.7941C38.6921 36.7941 38.7409 36.7861 38.7977 36.7776C39.0665 36.7123 39.254 36.4679 39.254 36.1827V30.3912C39.6858 30.5457 40.1421 30.7168 40.6307 30.8963V36.1504C35.9471 38.5123 35.5477 41.8521 35.5397 46.2835C35.5153 46.4381 35.5397 46.6256 35.6539 46.8051C35.8903 47.1795 36.3954 47.3511 37.3159 47.3756C37.4705 47.6364 37.7068 47.7989 37.9353 47.8318C37.9676 47.8398 38.0006 47.8398 38.0409 47.8398C38.3341 47.8398 38.5949 47.6279 38.6438 47.3267C38.6847 47.0744 38.5705 46.8301 38.3586 46.7074C38.5784 46.5773 38.6927 46.3165 38.6353 46.0557C38.562 45.7301 38.2364 45.5182 37.9023 45.5914C37.658 45.6483 37.4057 45.8437 37.2585 46.1534C37.0222 46.1454 36.8676 46.121 36.7619 46.1045C36.7784 41.9664 37.1528 39.2624 41.1688 37.234C45.1848 39.2624 45.5672 41.9664 45.5758 46.1045C45.4701 46.121 45.3149 46.1454 45.0871 46.1534C44.9405 45.8437 44.6882 45.6483 44.4433 45.5914C44.1092 45.5182 43.7837 45.7216 43.7104 46.0557C43.6535 46.3165 43.7672 46.5773 43.9871 46.7074C43.7837 46.8375 43.6615 47.0739 43.7018 47.3267C43.7507 47.6279 44.0115 47.8398 44.3047 47.8398C44.3371 47.8398 44.37 47.8398 44.4104 47.8318C44.6382 47.7909 44.8746 47.6284 45.0297 47.3756C45.9502 47.3511 46.4553 47.1801 46.6917 46.8051C46.8059 46.6261 46.8303 46.4386 46.8059 46.2835C46.8059 41.893 46.407 38.5776 41.8535 36.2237V31.3605C44.191 32.273 46.8059 33.3889 48.5899 34.4639C47.824 35.3032 47.3842 36.5003 47.3842 37.9504C47.3842 39.9624 48.2394 41.4936 49.6326 42.2351C48.2155 42.8459 47.3354 44.2795 47.3354 46.1778C47.3354 47.7823 47.9626 49.0613 49.0132 49.7864C47.6853 50.4302 46.8626 51.8228 46.8626 53.6559C46.8626 55.065 47.3592 56.2139 48.1905 56.9627L48.1894 58.4444ZM52.4583 56.2694C51.9287 56.5626 51.3747 56.7092 50.7963 56.7092C48.7923 56.7092 48.0838 55.0637 48.0838 53.6625C48.0838 52.2534 48.7923 50.616 50.7963 50.616C51.3747 50.616 51.9366 50.7625 52.4094 51.0233C52.4906 51.0966 52.7435 51.52 52.7435 53.6705C52.7429 55.8053 52.4906 56.2285 52.4583 56.2694V56.2694ZM52.9384 48.7999C52.4088 49.093 51.8548 49.2396 51.2764 49.2396C49.2724 49.2396 48.5639 47.5942 48.5639 46.193C48.5639 44.7839 49.2724 43.1464 51.2764 43.1464C51.8548 43.1464 52.4167 43.293 52.8895 43.5538C52.9708 43.6271 53.2236 44.0504 53.2236 46.201C53.2236 48.3357 52.9628 48.751 52.9384 48.7999V48.7999Z" fill="white"/>
</svg>
