<svg width="48" height="48" viewBox="0 0 48 48" fill="none" xmlns="http://www.w3.org/2000/svg">
<rect width="48" height="48" rx="8" fill="#F5F2FF"/>
<path d="M41.8879 24.6C41.8879 19.856 40.0033 15.3058 36.6488 11.9517C33.2943 8.59717 28.7447 6.71257 24.0005 6.71257C19.2562 6.71257 14.7063 8.59717 11.3521 11.9517C7.99764 15.3061 6.11304 19.8557 6.11304 24.6C6.11304 29.3443 7.99764 33.8942 11.3521 37.2483C14.7066 40.6028 19.2562 42.4874 24.0005 42.4874C28.743 42.482 33.2892 40.5959 36.6426 37.2423C39.9963 33.889 41.8823 29.3421 41.8877 24.6001L41.8879 24.6ZM24 41.1379C19.614 41.1379 15.4078 39.3955 12.3059 36.2942C9.20454 33.1928 7.46219 28.9864 7.46219 24.6001C7.46219 20.2137 9.20454 16.0079 12.3059 12.906C15.4073 9.80461 19.6137 8.06226 24 8.06226C28.3863 8.06226 32.5922 9.80461 35.6941 12.906C38.7955 16.0074 40.5378 20.2137 40.5378 24.6001C40.533 28.9846 38.7888 33.1876 35.6887 36.2888C32.5882 39.389 28.3848 41.1331 24 41.1379Z" fill="#123148"/>
<path d="M23.0111 4.37322C23.0217 4.37322 23.2631 4.36297 23.3733 4.35966C23.7446 4.3467 24.0354 4.03602 24.0242 3.66447C24.0131 3.29322 23.7039 3.00092 23.3324 3.01026C23.2148 3.01387 23.0976 3.01839 22.9804 3.02382C22.6143 3.04099 22.3289 3.34715 22.3373 3.71358C22.3455 4.07971 22.6447 4.37261 23.0111 4.37322Z" fill="#123148"/>
<path d="M26.6707 4.52449C26.7797 4.53896 27.0639 4.57783 27.097 4.57783C27.4505 4.57723 27.7434 4.30421 27.7693 3.95195C27.7952 3.59938 27.5448 3.28689 27.1953 3.23476C27.0793 3.21758 26.9629 3.20131 26.846 3.18594C26.4763 3.13773 26.1376 3.39808 26.0891 3.76753C26.0406 4.13727 26.3009 4.47598 26.6707 4.52449Z" fill="#123148"/>
<path d="M33.5518 6.73989C33.6491 6.79202 33.7458 6.84476 33.8423 6.8987V6.89839C34.1677 7.0801 34.5787 6.96318 34.7601 6.63774C34.9418 6.31229 34.8252 5.90126 34.5 5.71958C34.3973 5.66233 34.2939 5.60567 34.19 5.54993H34.1897C33.8612 5.37395 33.452 5.4975 33.2757 5.82595C33.0997 6.15441 33.2232 6.56363 33.5517 6.73994L33.5518 6.73989Z" fill="#123148"/>
<path d="M30.21 5.31968C30.3154 5.35373 30.4206 5.38869 30.5255 5.42425C30.878 5.54298 31.2607 5.35404 31.3804 5.00177C31.5 4.6492 31.312 4.2665 30.96 4.14594C30.8485 4.10798 30.737 4.07091 30.6249 4.03475H30.6246C30.2705 3.92205 29.8917 4.11702 29.7776 4.47078C29.6637 4.82455 29.8568 5.20394 30.21 5.31966L30.21 5.31968Z" fill="#123148"/>
<path d="M12.4394 7.82806C12.679 7.79642 12.9041 7.69577 13.0876 7.53877C13.4016 7.33808 13.4938 6.92073 13.2931 6.60642C13.0924 6.29243 12.6753 6.20022 12.3611 6.40091C12.2619 6.46419 12.1634 6.52837 12.0654 6.59346C11.8168 6.75739 11.7056 7.06506 11.7918 7.35013C11.8783 7.63519 12.1417 7.82986 12.4394 7.82805V7.82806Z" fill="#123148"/>
<path d="M9.51334 10.1727C9.79388 10.1336 10.0479 9.9856 10.2209 9.76111C10.4939 9.50738 10.5096 9.08009 10.2558 8.80709C10.0021 8.53377 9.57512 8.5181 9.30181 8.77183C9.21593 8.85169 9.13035 8.93244 9.04568 9.0138C8.84619 9.20395 8.7826 9.49655 8.88567 9.75208C8.98902 10.0079 9.23763 10.1746 9.51336 10.1728L9.51334 10.1727Z" fill="#123148"/>
<path d="M15.7349 6.04383C15.9347 6.02183 16.1278 5.96036 16.3038 5.86333C16.4698 5.79583 16.6021 5.66505 16.6717 5.49961C16.741 5.33448 16.7419 5.14825 16.6738 4.98252C16.606 4.81648 16.4747 4.68449 16.3092 4.61549C16.1438 4.54648 15.9579 4.54588 15.7921 4.61428C15.6833 4.65888 15.5752 4.70439 15.4676 4.75079L15.4673 4.75109C15.3031 4.8216 15.1735 4.95509 15.1072 5.12144C15.0412 5.28777 15.0439 5.4734 15.1147 5.63793C15.2241 5.88292 15.4664 6.04173 15.7349 6.04383V6.04383Z" fill="#123148"/>
<path d="M19.2966 4.87973C19.4575 4.86768 19.6166 4.83815 19.7709 4.79205C20.1355 4.7143 20.3684 4.35601 20.2907 3.99138C20.2132 3.62676 19.8549 3.39413 19.4903 3.47157C19.3752 3.49598 19.2607 3.52129 19.1465 3.54751C18.7831 3.63067 18.5559 3.99288 18.6393 4.35627C18.7135 4.66002 18.9838 4.87548 19.2966 4.8797V4.87973Z" fill="#123148"/>
<path d="M45.5969 24.951C45.5966 24.8344 45.5993 24.5333 45.5993 24.5333C45.5993 24.1606 45.2971 23.8583 44.9243 23.8583C44.5516 23.8583 44.2493 24.1606 44.2493 24.5333C44.2493 24.5333 44.2487 24.8211 44.2469 24.9314C44.2415 25.3042 44.5392 25.6106 44.912 25.6164C45.0922 25.6224 45.2669 25.5549 45.3962 25.4295C45.5252 25.3039 45.5978 25.1312 45.5969 24.951Z" fill="#123148"/>
<path d="M44.53 29.3304C44.8488 29.3352 45.1263 29.1131 45.1914 28.8009C45.214 28.6855 45.2363 28.5698 45.2571 28.4535H45.2568C45.2887 28.2772 45.2493 28.0952 45.1471 27.9482C45.045 27.8008 44.8883 27.7005 44.712 27.6688C44.5354 27.6372 44.3537 27.6769 44.2066 27.7794C44.0596 27.8819 43.9592 28.0389 43.9279 28.2151C43.9083 28.323 43.8866 28.4306 43.867 28.5385C43.8137 28.7371 43.8607 28.9492 43.9927 29.1068C44.1247 29.2644 44.3251 29.3479 44.53 29.3304L44.53 29.3304Z" fill="#123148"/>
<path d="M43.9167 20.921C43.9369 21.0292 43.9558 21.138 43.9739 21.2471H43.9742C44.0354 21.6147 44.3831 21.863 44.7507 21.8016C45.1187 21.7404 45.367 21.3926 45.3055 21.025C45.2859 20.909 45.2657 20.7936 45.2449 20.6782C45.1777 20.3115 44.8261 20.0683 44.4593 20.1355C44.0926 20.2027 43.8497 20.5544 43.9166 20.9211L43.9167 20.921Z" fill="#123148"/>
<path d="M36.586 8.73511C36.6725 8.80351 36.758 8.87251 36.8427 8.94243C37.1308 9.17928 37.556 9.138 37.7928 8.84992C38.0297 8.56184 37.9884 8.13665 37.7003 7.89983C37.609 7.82509 37.5174 7.75096 37.4252 7.67774C37.1329 7.44661 36.7092 7.49603 36.4778 7.78773C36.2464 8.07943 36.2949 8.50341 36.586 8.73512L36.586 8.73511Z" fill="#123148"/>
<path d="M44.2054 16.949C44.0734 16.6006 43.684 16.4255 43.3354 16.5572C42.9871 16.6889 42.8111 17.0779 42.9425 17.4266C42.9813 17.5294 43.0199 17.6328 43.0573 17.7367C43.1869 18.0842 43.5702 18.2647 43.9206 18.1435C44.2713 18.0173 44.4537 17.6306 44.3274 17.2799C44.2876 17.169 44.2469 17.0587 44.2053 16.949L44.2054 16.949Z" fill="#123148"/>
<path d="M43.224 32.899C43.5706 33.0331 43.9605 32.865 44.1009 32.5211C44.1446 32.4112 44.1868 32.3006 44.2287 32.1897V32.1894C44.292 32.0218 44.2863 31.8359 44.2121 31.6726C44.1383 31.5092 44.0027 31.3821 43.8348 31.3188C43.667 31.2558 43.4811 31.2622 43.3178 31.3363C43.1547 31.4107 43.0279 31.5466 42.9649 31.7145C42.9263 31.8175 42.8868 31.92 42.8462 32.0224H42.8465C42.7802 32.1888 42.7829 32.3744 42.8537 32.5389C42.9245 32.7032 43.0577 32.8327 43.224 32.899L43.224 32.899Z" fill="#123148"/>
<path d="M7.65724 11.5135C7.35921 11.2896 6.93613 11.3499 6.71224 11.6479C6.64143 11.7419 6.57182 11.8368 6.50281 11.9321C6.28404 12.234 6.35124 12.6559 6.65318 12.8747C6.95482 13.0934 7.377 13.0262 7.59579 12.7246C7.66058 12.6354 7.72597 12.5465 7.79196 12.4585C8.01585 12.1605 7.95559 11.7371 7.65726 11.5135L7.65724 11.5135Z" fill="#123148"/>
<path d="M42.3136 34.7528C42.1603 34.6606 41.9764 34.6331 41.8026 34.6768C41.629 34.7202 41.4795 34.8308 41.3876 34.9845C41.331 35.0797 41.2734 35.174 41.215 35.2678V35.2681C41.0185 35.5848 41.1161 36.0009 41.4328 36.1974C41.7498 36.3942 42.166 36.2965 42.3625 35.9795C42.4242 35.8798 42.4851 35.7794 42.5457 35.6788C42.7373 35.3591 42.6334 34.9444 42.3137 34.7528L42.3136 34.7528Z" fill="#123148"/>
<path d="M39.4301 11.4857C39.6733 11.766 40.0958 11.8009 40.3815 11.5641C40.518 11.4483 40.6029 11.2832 40.6177 11.1045C40.6325 10.9261 40.5755 10.7492 40.4598 10.6127C40.3836 10.5229 40.3064 10.4337 40.2284 10.3451C39.9819 10.0661 39.5561 10.039 39.2764 10.2852C38.9968 10.5314 38.9694 10.9572 39.2153 11.2371C39.2876 11.3194 39.359 11.4022 39.4301 11.4857L39.4301 11.4857Z" fill="#123148"/>
<path d="M42.6932 13.7715C42.6342 13.6699 42.5745 13.569 42.5142 13.4683C42.3217 13.1492 41.9067 13.0464 41.5876 13.239C41.2682 13.4315 41.1654 13.8465 41.3583 14.1659C41.4152 14.26 41.4713 14.3543 41.5261 14.4492H41.5258C41.7157 14.768 42.1255 14.8768 42.4485 14.6939C42.6031 14.6041 42.7161 14.4564 42.7619 14.2835C42.808 14.1105 42.7833 13.9264 42.6932 13.7715L42.6932 13.7715Z" fill="#123148"/>
<path d="M2.48861 26.5664C2.50126 26.746 2.58654 26.9129 2.72455 27.028C2.86287 27.1434 3.04247 27.1977 3.22146 27.1778C3.39956 27.1618 3.56439 27.0756 3.6789 26.9382C3.79371 26.8008 3.84915 26.6233 3.83288 26.4449C3.82294 26.3352 3.8139 26.2255 3.80576 26.1156C3.77834 25.7437 3.4547 25.4647 3.08285 25.4921C2.711 25.5198 2.43196 25.8435 2.45938 26.215C2.46812 26.3325 2.48168 26.4495 2.48861 26.5664L2.48861 26.5664Z" fill="#123148"/>
<path d="M26.7325 44.6672C26.6234 44.6819 26.514 44.6955 26.4046 44.7085C26.0499 44.7503 25.789 45.0613 25.8098 45.4181C25.8305 45.7746 26.1256 46.0533 26.4826 46.0539C26.5095 46.0539 26.796 46.0205 26.9124 46.0051C27.2818 45.9554 27.5409 45.6155 27.4915 45.2461C27.4418 44.8766 27.1019 44.6175 26.7325 44.6672L26.7325 44.6672Z" fill="#123148"/>
<path d="M23.1059 44.8307C22.9956 44.8259 22.8856 44.8202 22.7759 44.8135H22.7756C22.4035 44.7912 22.0838 45.0751 22.0618 45.4472C22.0395 45.8194 22.323 46.1391 22.6952 46.1614C22.8121 46.1683 23.067 46.1801 23.0767 46.1801H23.077C23.444 46.1798 23.7432 45.8863 23.7511 45.5196C23.7592 45.1525 23.4723 44.8467 23.1059 44.8307V44.8307Z" fill="#123148"/>
<path d="M19.5097 44.3501C19.4018 44.3257 19.2945 44.3004 19.1872 44.2742V44.2745C18.8253 44.1874 18.4613 44.4095 18.3733 44.7714C18.2853 45.133 18.5068 45.4976 18.8684 45.5862C18.9823 45.6139 19.0965 45.6407 19.2107 45.6666C19.3855 45.7064 19.5687 45.6751 19.7203 45.5798C19.8718 45.4843 19.9794 45.3328 20.0189 45.158C20.0587 44.9832 20.0273 44.8 19.9318 44.6484C19.8363 44.4971 19.6844 44.3895 19.5096 44.3501L19.5097 44.3501Z" fill="#123148"/>
<path d="M16.0559 43.2323C15.9543 43.1889 15.8531 43.1446 15.7521 43.0997C15.5888 43.0268 15.4029 43.0217 15.2356 43.0859C15.0687 43.1498 14.9337 43.2775 14.8607 43.4411C14.7089 43.7817 14.8616 44.1806 15.2022 44.3325C15.3094 44.3804 15.4173 44.4275 15.5258 44.4739C15.8687 44.6203 16.2653 44.4609 16.4117 44.1183C16.5579 43.7754 16.3988 43.3788 16.0558 43.2324L16.0559 43.2323Z" fill="#123148"/>
<path d="M36.6292 40.4305C36.5436 40.4992 36.4571 40.5673 36.37 40.6342L36.3703 40.6345C36.0753 40.8623 36.0208 41.2863 36.2489 41.5813C36.4767 41.876 36.9004 41.9305 37.1954 41.7027C37.2882 41.631 37.3807 41.5584 37.4724 41.4854V41.4851C37.7628 41.2522 37.8096 40.8279 37.5772 40.5371C37.3446 40.2463 36.9206 40.1987 36.6292 40.4304L36.6292 40.4305Z" fill="#123148"/>
<path d="M12.8582 41.512C12.766 41.4512 12.6744 41.3897 12.5831 41.3273H12.5834C12.4354 41.2264 12.2537 41.1881 12.0777 41.2212C11.9017 41.2544 11.7462 41.3562 11.6453 41.5039C11.4349 41.8119 11.5142 42.2316 11.8219 42.442C11.9189 42.5083 12.0162 42.5736 12.1145 42.6387C12.4264 42.84 12.8419 42.7551 13.0495 42.4474C13.1484 42.2979 13.1836 42.1153 13.1478 41.9399C13.1119 41.7646 13.0076 41.6106 12.8582 41.512L12.8582 41.512Z" fill="#123148"/>
<path d="M40.2039 37.857C39.9228 37.6123 39.497 37.6412 39.2514 37.9218C39.179 38.0046 39.1061 38.0866 39.0326 38.1683V38.168C38.9124 38.3009 38.85 38.4759 38.859 38.6546C38.8681 38.8336 38.9476 39.0015 39.0805 39.1217C39.3583 39.3679 39.782 39.3465 40.0339 39.0738C40.1132 38.9864 40.1912 38.8981 40.2687 38.8095H40.2684C40.5136 38.5287 40.4847 38.1023 40.2039 37.857L40.2039 37.857Z" fill="#123148"/>
<path d="M30.2693 43.861C30.1645 43.8951 30.0596 43.9282 29.9541 43.9605H29.9544C29.7833 44.0129 29.6398 44.1313 29.5558 44.2892C29.472 44.4474 29.4542 44.6324 29.5066 44.8036C29.6199 45.1568 29.9939 45.3554 30.3498 45.2511C30.4625 45.2164 30.5746 45.1812 30.6861 45.145C30.8573 45.0905 30.9998 44.97 31.0818 44.8102C31.164 44.6502 31.1788 44.4643 31.1233 44.2935C31.0679 44.1226 30.9468 43.9807 30.7865 43.8996C30.6261 43.8185 30.4399 43.8044 30.2694 43.861L30.2693 43.861Z" fill="#123148"/>
<path d="M33.6036 42.4323C33.5066 42.4848 33.4093 42.5363 33.3116 42.5872C33.1528 42.6701 33.0335 42.8126 32.9795 42.9832C32.9259 43.154 32.9422 43.3391 33.025 43.4979C33.2001 43.8251 33.6048 43.9526 33.9357 43.7844C34.0388 43.7305 34.1418 43.676 34.2449 43.6205C34.573 43.4433 34.6954 43.0338 34.5182 42.706C34.341 42.3778 33.9315 42.2555 33.6037 42.4324L33.6036 42.4323Z" fill="#123148"/>
<path d="M3.18071 30.3749C3.28437 30.7308 3.65261 30.9396 4.01123 30.8456C4.37073 30.7462 4.58136 30.3743 4.48192 30.0148C4.45269 29.9087 4.42407 29.8026 4.39664 29.696V29.6963C4.30353 29.3353 3.93529 29.1183 3.5743 29.2114C3.21329 29.3045 2.99633 29.6728 3.08944 30.0337C3.11897 30.148 3.14941 30.2616 3.18075 30.3749L3.18071 30.3749Z" fill="#123148"/>
<path d="M2.51605 22.3467C2.50399 22.4633 2.49646 22.5808 2.4823 22.6974H2.4826C2.45216 22.9831 2.60494 23.257 2.86409 23.3812C3.12325 23.5053 3.43212 23.4529 3.63583 23.2501C3.74914 23.1323 3.81724 22.978 3.82778 22.8146C3.8317 22.7043 3.84797 22.5953 3.85912 22.4859C3.89739 22.1149 3.628 21.7832 3.25705 21.7449C2.8864 21.7063 2.55462 21.976 2.51605 22.3467L2.51605 22.3467Z" fill="#123148"/>
<path d="M9.78194 39.0188C9.51646 38.7572 9.08916 38.7602 8.82761 39.0257C8.56575 39.2912 8.56906 39.7188 8.83454 39.9804C8.91771 40.0626 9.00178 40.1443 9.08676 40.2253C9.35676 40.48 9.78165 40.4691 10.0381 40.2006C10.2945 39.9324 10.2861 39.5076 10.0194 39.2493C9.93985 39.1731 9.86059 39.0965 9.78195 39.0188L9.78194 39.0188Z" fill="#123148"/>
<path d="M3.63707 19.7169C3.99626 19.8115 4.36511 19.6008 4.46605 19.2431C4.49498 19.1371 4.52481 19.0316 4.55555 18.9261V18.9264C4.60617 18.7544 4.58598 18.5694 4.5001 18.4123C4.41392 18.255 4.26898 18.1384 4.09691 18.0881C3.92514 18.0381 3.74012 18.0583 3.58312 18.1445C3.42582 18.2306 3.3095 18.3759 3.25978 18.548C3.22694 18.6607 3.1947 18.774 3.16366 18.8879C3.06542 19.2477 3.27757 19.6186 3.63706 19.7168L3.63707 19.7169Z" fill="#123148"/>
<path d="M4.54609 33.9975C4.71152 34.3296 5.112 34.4685 5.44774 34.3106C5.60895 34.2326 5.7325 34.0937 5.79126 33.9246C5.85002 33.7556 5.83917 33.5699 5.76113 33.409C5.71321 33.3105 5.6665 33.2116 5.6207 33.1125L5.6204 33.1122C5.46371 32.7741 5.06262 32.6267 4.72423 32.7834C4.38583 32.9398 4.23877 33.3412 4.39547 33.6796C4.44459 33.786 4.49492 33.8921 4.54614 33.9975L4.54609 33.9975Z" fill="#123148"/>
<path d="M5.58053 14.6401C5.42052 14.5599 5.23519 14.5467 5.06524 14.603C4.89529 14.6597 4.75486 14.7814 4.67501 14.9414C4.62227 15.0469 4.57044 15.1524 4.51922 15.2584C4.358 15.5944 4.49963 15.9973 4.83532 16.1589C5.17102 16.3204 5.57421 16.1793 5.73604 15.8437C5.78396 15.7442 5.83247 15.6451 5.88189 15.5459C5.96205 15.3859 5.9753 15.2006 5.91895 15.0306C5.8623 14.8607 5.74056 14.7203 5.58055 14.6401L5.58053 14.6401Z" fill="#123148"/>
<path d="M7.4798 37.462C7.77511 37.2387 7.84051 36.8217 7.62776 36.5188C7.56297 36.4299 7.49848 36.3404 7.4352 36.2503V36.25C7.22005 35.946 6.79908 35.8736 6.49476 36.0885C6.1904 36.3033 6.11778 36.724 6.33203 37.0287C6.39953 37.1245 6.46763 37.2201 6.53694 37.3141C6.77047 37.5916 7.17276 37.6546 7.47985 37.462L7.4798 37.462Z" fill="#123148"/>
<path d="M41.0439 8.37863L42.8761 7.90493C43.1639 7.8305 43.3691 7.57707 43.3814 7.28025C43.3941 6.98343 43.2112 6.71312 42.9309 6.61489L45.4016 4.15326C45.6656 3.89019 45.6662 3.46259 45.4031 3.19831C45.14 2.93434 44.7124 2.93343 44.4481 3.1968L41.9962 5.64007C41.8838 5.377 41.6174 5.21368 41.332 5.23327C41.0463 5.25285 40.8047 5.45083 40.7293 5.72686L40.2246 7.5445C40.1601 7.77683 40.2243 8.02604 40.3933 8.19811C40.5624 8.37017 40.8104 8.43888 41.0439 8.37861L41.0439 8.37863Z" fill="#123148"/>
<path d="M5.06918 6.61506C4.78893 6.7136 4.60602 6.9836 4.61868 7.28042C4.63103 7.57754 4.83655 7.83096 5.12403 7.9054L6.95617 8.3791V8.3788C7.1897 8.43937 7.43771 8.37036 7.60676 8.1983C7.77581 8.02623 7.84 7.77703 7.77551 7.54469L7.27077 5.72705H7.27107C7.19543 5.45103 6.95376 5.25305 6.66809 5.23346C6.38272 5.21418 6.11634 5.3775 6.00393 5.64057L3.55164 3.1973C3.28736 2.93393 2.86007 2.93484 2.597 3.19911C2.33392 3.46308 2.33453 3.89038 2.59881 4.15375L5.06918 6.61506Z" fill="#123148"/>
<path d="M42.9309 42.5851C43.2112 42.4868 43.3941 42.2165 43.3814 41.9197C43.3691 41.6229 43.1638 41.3695 42.8761 41.295L41.0439 40.8213C40.8104 40.7611 40.5624 40.8298 40.3933 41.0018C40.2243 41.1739 40.1601 41.4231 40.2246 41.6554L40.7293 43.4731C40.8047 43.7491 41.0463 43.9471 41.332 43.9667C41.6174 43.9863 41.8838 43.8229 41.9962 43.5599L44.4481 46.0031C44.7124 46.2659 45.1394 46.265 45.4025 46.001C45.6655 45.7371 45.6649 45.3101 45.4016 45.0467L42.9309 42.5851Z" fill="#123148"/>
<path d="M6.9561 40.8216L5.12396 41.2953V41.295C4.83648 41.3694 4.63097 41.6229 4.61861 41.92C4.60596 42.2168 4.78887 42.4868 5.06911 42.5853L2.59877 45.047V45.0467C2.33569 45.31 2.33509 45.7367 2.59786 46.0004C2.86063 46.2641 3.28733 46.2656 3.55158 46.0031L6.00387 43.5598C6.11627 43.8229 6.38266 43.9862 6.66833 43.9666C6.9537 43.9473 7.19537 43.7494 7.27101 43.4733L7.77575 41.6557H7.77545C7.83994 41.4234 7.77575 41.1742 7.6067 41.0021C7.43765 40.83 7.18965 40.761 6.95611 40.8216L6.9561 40.8216Z" fill="#123148"/>
</svg>
