<svg width="14" height="9" viewBox="0 0 14 9" fill="none" xmlns="http://www.w3.org/2000/svg">
<path d="M7.54628 8.75564L13.7763 1.93832C13.9206 1.78065 14 1.57016 14 1.34573C14 1.12129 13.9206 0.910811 13.7763 0.753134L13.3176 0.251086C13.0188 -0.0755998 12.533 -0.0755998 12.2345 0.251086L7.0029 5.97575L1.76547 0.244735C1.62126 0.0870583 1.42901 1.49908e-07 1.22402 1.52352e-07C1.0188 1.54799e-07 0.826562 0.0870584 0.682239 0.244735L0.223657 0.746783C0.0794468 0.904583 1.32956e-08 1.11494 1.59719e-08 1.33938C1.86482e-08 1.56381 0.0794468 1.77429 0.223657 1.93197L6.45941 8.75564C6.60408 8.91369 6.79723 9.0005 7.00256 9C7.20869 9.0005 7.40173 8.91369 7.54628 8.75564Z" fill="#44515E"/>
</svg>
