<svg width="12" height="8" viewBox="0 0 12 8" fill="none" xmlns="http://www.w3.org/2000/svg">
<path d="M6.46824 7.78279L11.8083 1.72295C11.9319 1.5828 12 1.3957 12 1.1962C12 0.996706 11.9319 0.809609 11.8083 0.669453L11.4151 0.223188C11.1589 -0.0671998 10.7425 -0.0671998 10.4867 0.223188L6.00249 5.31178L1.51326 0.217542C1.38965 0.0773852 1.22487 1.28492e-07 1.04916 1.30587e-07C0.873261 1.32685e-07 0.708482 0.0773852 0.584775 0.217542L0.191706 0.663807C0.0680971 0.804074 1.18183e-08 0.99106 1.41972e-08 1.19056C1.65762e-08 1.39005 0.0680971 1.57715 0.191706 1.71731L5.53664 7.78279C5.66064 7.92328 5.8262 8.00044 6.00219 8C6.17888 8.00044 6.34434 7.92328 6.46824 7.78279Z" fill="#CBD2D9"/>
</svg>
