<svg width="48" height="48" viewBox="0 0 48 48" fill="none" xmlns="http://www.w3.org/2000/svg">
<rect width="48" height="48" rx="8" fill="#F5F2FF"/>
<path d="M8.61534 6.30767C8.61534 7.58225 7.58225 8.61534 6.30767 8.61534C5.03342 8.61534 4 7.58225 4 6.30767C4 5.03342 5.03342 4 6.30767 4C7.58225 4 8.61534 5.03342 8.61534 6.30767Z" fill="#123148"/>
<path d="M44.0003 6.30767C44.0003 7.58225 42.9669 8.61534 41.6927 8.61534C40.4181 8.61534 39.385 7.58225 39.385 6.30767C39.385 5.03342 40.4181 4 41.6927 4C42.9669 4 44.0003 5.03342 44.0003 6.30767Z" fill="#123148"/>
<path d="M16.308 9.38496C16.308 10.6592 15.2745 11.6926 14.0003 11.6926C12.7257 11.6926 11.6926 10.6592 11.6926 9.38496C11.6926 8.11038 12.7257 7.07729 14.0003 7.07729C15.2745 7.07729 16.308 8.11038 16.308 9.38496Z" fill="#123148"/>
<path d="M8.61536 14.7692C8.61536 15.6189 7.92672 16.3078 7.07713 16.3078C6.22725 16.3078 5.53857 15.6188 5.53857 14.7692C5.53857 13.9196 6.22721 13.2307 7.07713 13.2307C7.92677 13.2307 8.61536 13.9196 8.61536 14.7692Z" fill="#123148"/>
<path d="M24.0001 20.9233C24.0001 21.7729 23.3115 22.4615 22.4616 22.4615C21.6119 22.4615 20.9233 21.7729 20.9233 20.9233C20.9233 20.0734 21.612 19.3848 22.4616 19.3848C23.3114 19.3848 24.0001 20.0734 24.0001 20.9233Z" fill="#123148"/>
<path d="M22.4615 7.07712C22.4615 7.92675 21.7729 8.61534 20.9233 8.61534C20.0734 8.61534 19.3848 7.92671 19.3848 7.07712C19.3848 6.22723 20.0734 5.53856 20.9233 5.53856C21.773 5.53856 22.4615 6.22719 22.4615 7.07712Z" fill="#123148"/>
<path d="M31.6923 16.308C31.6923 17.1576 31.0036 17.8462 30.154 17.8462C29.3042 17.8462 28.6155 17.1576 28.6155 16.308C28.6155 15.4581 29.3041 14.7694 30.154 14.7694C31.0037 14.7694 31.6923 15.458 31.6923 16.308Z" fill="#123148"/>
<path d="M31.6922 6.30767C31.6922 7.58225 30.6591 8.61534 29.3846 8.61534C28.1103 8.61534 27.0769 7.58225 27.0769 6.30767C27.0769 5.03342 28.1103 4 29.3846 4C30.6591 4 31.6922 5.03342 31.6922 6.30767Z" fill="#123148"/>
<path d="M36.3073 11.6926C36.3073 12.5422 35.6186 13.2308 34.769 13.2308C33.9191 13.2308 33.2305 12.5422 33.2305 11.6926C33.2305 10.8427 33.9191 10.1541 34.769 10.1541C35.6187 10.1541 36.3073 10.8427 36.3073 11.6926Z" fill="#123148"/>
<path d="M36.3073 33.2306C36.3073 34.0802 35.6186 34.7691 34.769 34.7691C33.9191 34.7691 33.2305 34.0802 33.2305 33.2306C33.2305 32.381 33.9191 31.692 34.769 31.692C35.6187 31.692 36.3073 32.381 36.3073 33.2306Z" fill="#123148"/>
<path d="M36.3073 20.9233C36.3073 21.7729 35.6186 22.4615 34.769 22.4615C33.9191 22.4615 33.2305 21.7729 33.2305 20.9233C33.2305 20.0734 33.9191 19.3848 34.769 19.3848C35.6187 19.3848 36.3073 20.0734 36.3073 20.9233Z" fill="#123148"/>
<path d="M42.4615 34.7693C42.4615 35.6189 41.7729 36.3075 40.923 36.3075C40.0734 36.3075 39.3848 35.6189 39.3848 34.7693C39.3848 33.9194 40.0734 33.2308 40.923 33.2308C41.7729 33.2308 42.4615 33.9194 42.4615 34.7693Z" fill="#123148"/>
<path d="M8.61534 23.231C8.61534 24.5052 7.58225 25.5386 6.30767 25.5386C5.03342 25.5386 4 24.5052 4 23.231C4 21.9564 5.03342 20.9233 6.30767 20.9233C7.58225 20.9233 8.61534 21.9564 8.61534 23.231Z" fill="#123148"/>
<path d="M8.61534 41.6923C8.61534 42.9666 7.58225 44 6.30767 44C5.03342 44 4 42.9666 4 41.6923C4 40.4178 5.03342 39.3847 6.30767 39.3847C7.58225 39.3847 8.61534 40.4178 8.61534 41.6923Z" fill="#123148"/>
<path d="M19.3846 41.6923C19.3846 42.9666 18.3515 44 17.077 44C15.8024 44 14.7693 42.9666 14.7693 41.6923C14.7693 40.4178 15.8024 39.3847 17.077 39.3847C18.3515 39.3847 19.3846 40.4178 19.3846 41.6923Z" fill="#123148"/>
<path d="M34.7696 41.6923C34.7696 42.9666 33.7362 44 32.462 44C31.1874 44 30.1543 42.9666 30.1543 41.6923C30.1543 40.4178 31.1874 39.3847 32.462 39.3847C33.7362 39.3847 34.7696 40.4178 34.7696 41.6923Z" fill="#123148"/>
<path d="M44.0003 41.6923C44.0003 42.9666 42.9669 44 41.6927 44C40.4181 44 39.385 42.9666 39.385 41.6923C39.385 40.4178 40.4181 39.3847 41.6927 39.3847C42.9669 39.3847 44.0003 40.4178 44.0003 41.6923Z" fill="#123148"/>
<path d="M22.4615 33.9995C22.4615 35.2741 21.4284 36.3072 20.1539 36.3072C18.8796 36.3072 17.8462 35.2741 17.8462 33.9995C17.8462 32.7253 18.8796 31.6919 20.1539 31.6919C21.4284 31.6919 22.4615 32.7253 22.4615 33.9995Z" fill="#123148"/>
<path d="M31.6922 26.3076C31.6922 27.5822 30.6591 28.6153 29.3846 28.6153C28.1103 28.6153 27.0769 27.5822 27.0769 26.3076C27.0769 25.033 28.1103 23.9999 29.3846 23.9999C30.6591 23.9999 31.6922 25.033 31.6922 26.3076Z" fill="#123148"/>
<path d="M16.308 26.3076C16.308 27.5822 15.2745 28.6153 14.0003 28.6153C12.7257 28.6153 11.6926 27.5822 11.6926 26.3076C11.6926 25.033 12.7257 23.9999 14.0003 23.9999C15.2745 23.9999 16.308 25.033 16.308 26.3076Z" fill="#123148"/>
<path d="M44.0003 26.3076C44.0003 27.5822 42.9669 28.6153 41.6927 28.6153C40.4181 28.6153 39.385 27.5822 39.385 26.3076C39.385 25.033 40.4181 23.9999 41.6927 23.9999C42.9669 23.9999 44.0003 25.033 44.0003 26.3076Z" fill="#123148"/>
<path d="M16.308 18.6156C16.308 19.8899 15.2745 20.9233 14.0003 20.9233C12.7257 20.9233 11.6926 19.8899 11.6926 18.6156C11.6926 17.341 12.7257 16.308 14.0003 16.308C15.2745 16.308 16.308 17.341 16.308 18.6156Z" fill="#123148"/>
<path d="M24.0001 14.0003C24.0001 15.2745 22.967 16.308 21.6924 16.308C20.4179 16.308 19.3848 15.2745 19.3848 14.0003C19.3848 12.7257 20.4179 11.6926 21.6924 11.6926C22.967 11.6926 24.0001 12.7257 24.0001 14.0003Z" fill="#123148"/>
<path d="M42.4615 17.0769C42.4615 18.3515 41.4284 19.3846 40.1539 19.3846C38.8793 19.3846 37.8462 18.3515 37.8462 17.0769C37.8462 15.8023 38.8793 14.7692 40.1539 14.7692C41.4284 14.7692 42.4615 15.8023 42.4615 17.0769Z" fill="#123148"/>
<path d="M8.61536 31.6919C8.61536 32.5418 7.92672 33.2304 7.07713 33.2304C6.22725 33.2304 5.53857 32.5418 5.53857 31.6919C5.53857 30.8422 6.22721 30.1537 7.07713 30.1537C7.92677 30.1537 8.61536 30.8423 8.61536 31.6919Z" fill="#123148"/>
<path d="M13.2308 36.3072C13.2308 37.1571 12.5422 37.8458 11.6926 37.8458C10.8427 37.8458 10.1541 37.1571 10.1541 36.3072C10.1541 35.4576 10.8427 34.769 11.6926 34.769C12.5422 34.769 13.2308 35.4576 13.2308 36.3072Z" fill="#123148"/>
<path d="M28.6154 36.3072C28.6154 37.1571 27.9267 37.8458 27.0768 37.8458C26.2272 37.8458 25.5386 37.1571 25.5386 36.3072C25.5386 35.4576 26.2272 34.769 27.0768 34.769C27.9267 34.769 28.6154 35.4576 28.6154 36.3072Z" fill="#123148"/>
</svg>
