<svg width="54" height="72" viewBox="0 0 54 72" fill="none" xmlns="http://www.w3.org/2000/svg">
<path d="M54 10.0125C54 6.3 50.9625 3.2625 47.25 3.2625H42.8625V1.125C42.8625 0.45 42.4125 0 41.7375 0C41.0625 0 40.6125 0.45 40.6125 1.125V3.2625H28.125V1.125C28.125 0.45 27.675 0 27 0C26.325 0 25.875 0.45 25.875 1.125V3.2625H13.3875V1.125C13.3875 0.45 12.9375 0 12.2625 0C11.5875 0 11.1375 0.45 11.1375 1.125V3.2625H6.75C3.0375 3.2625 0 6.3 0 10.0125V65.2494C0 68.9619 3.0375 71.9994 6.75 71.9994H47.25C50.9625 71.9994 54 68.9619 54 65.2494V10.0125ZM47.25 69.7494H6.75C4.275 69.7494 2.25 67.7244 2.25 65.2494V10.0125C2.25 7.5375 4.275 5.5125 6.75 5.5125H11.1375V7.65C11.1375 8.325 11.5875 8.775 12.2625 8.775C12.9375 8.775 13.3875 8.325 13.3875 7.65V5.5125H25.875V7.65C25.875 8.325 26.325 8.775 27 8.775C27.675 8.775 28.125 8.325 28.125 7.65V5.5125H40.6125V7.65C40.6125 8.325 41.0625 8.775 41.7375 8.775C42.4125 8.775 42.8625 8.325 42.8625 7.65V5.5125H47.25C49.725 5.5125 51.75 7.5375 51.75 10.0125V65.2494C51.75 67.7244 49.725 69.7494 47.25 69.7494Z" fill="white"/>
<path d="M41.2869 24.3H12.7119C12.0369 24.3 11.5869 24.75 11.5869 25.425C11.5869 26.1 12.0369 26.55 12.7119 26.55H41.1751C41.8501 26.55 42.3001 26.1 42.3001 25.425C42.3001 24.75 41.8501 24.3 41.2876 24.3H41.2869Z" fill="white"/>
<path d="M41.2869 39.825H12.7119C12.0369 39.825 11.5869 40.275 11.5869 40.95C11.5869 41.625 12.0369 42.075 12.7119 42.075H41.1751C41.8501 42.075 42.3001 41.625 42.3001 40.95C42.3001 40.275 41.8501 39.825 41.2876 39.825H41.2869Z" fill="white"/>
<path d="M41.2869 55.3501H12.7119C12.0369 55.3501 11.5869 55.8001 11.5869 56.4751C11.5869 57.1501 12.0369 57.6001 12.7119 57.6001H41.1751C41.8501 57.6001 42.3001 57.1501 42.3001 56.4751C42.3001 55.8001 41.8501 55.3501 41.2876 55.3501H41.2869Z" fill="white"/>
</svg>
