<svg width="76" height="74" viewBox="0 0 76 74" fill="none" xmlns="http://www.w3.org/2000/svg">
<path d="M75.0682 35.4458C75.0682 43.2161 69.1641 49.3025 61.6344 49.3025C61.2943 49.3025 61.0126 49.0208 61.0126 48.6806C61.0126 48.3405 61.2943 48.0588 61.6344 48.0588C68.4676 48.0588 73.8245 42.5197 73.8245 35.4458C73.8245 29.5167 69.7859 24.4662 64.0059 23.1562C63.8237 23.1145 63.6745 22.9988 63.5912 22.8328C63.5085 22.6668 63.4998 22.4765 63.5744 22.3018C64.0886 21.0992 64.3541 19.8139 64.3541 18.4956C64.3541 13.1555 60.0088 8.8102 54.6687 8.8102C52.7528 8.8102 50.8956 9.37418 49.3037 10.4357C49.1463 10.5352 48.9555 10.5682 48.7814 10.5103C48.6072 10.4525 48.458 10.3281 48.3834 10.154C46.1691 4.79699 40.9862 1.33039 35.1983 1.33039C27.428 1.33039 21.167 7.4173 20.9518 15.1957C20.9437 15.3699 20.8691 15.544 20.7279 15.6516C20.5955 15.7678 20.4127 15.8176 20.2386 15.7927C19.3593 15.6683 18.6212 15.6105 17.9166 15.6105C8.96864 15.6105 1.69574 22.8914 1.69574 31.8314C1.69574 40.6214 6.82071 47.106 14.458 47.9605C14.7982 48.0021 15.0469 48.3087 15.0052 48.6488C14.9636 48.9889 14.657 49.2377 14.3169 49.196C6.02431 48.267 0.451538 41.2933 0.451538 31.8305C0.451538 22.2028 8.28833 14.3657 17.9163 14.3657C18.4884 14.3657 19.0773 14.3986 19.7327 14.4733C20.3117 6.3628 26.9789 0.09375 35.1969 0.09375C41.2503 0.09375 46.682 3.56849 49.2364 9.01688C50.8868 8.0717 52.7522 7.56555 54.6681 7.56555C60.6966 7.56555 65.5978 12.4668 65.5978 18.4953C65.5978 19.739 65.3908 20.9496 64.9841 22.1106C70.9548 23.7939 75.0682 29.1763 75.0682 35.4455L75.0682 35.4458ZM59.4693 20.4777V72.9535C59.4693 73.2937 59.1876 73.5754 58.8475 73.5754H17.078C16.7378 73.5754 16.4561 73.2937 16.4561 72.9535V20.4777C16.4561 20.1376 16.7378 19.8559 17.078 19.8559H58.8475C59.1963 19.8559 59.4699 20.1376 59.4699 20.4777H59.4693ZM58.2251 21.0995H17.6995V72.3315H58.2251V21.0995ZM50.969 67.5129H36.2002C35.8601 67.5129 35.5784 67.7946 35.5784 68.1347C35.5784 68.4748 35.8601 68.7565 36.2002 68.7565H50.969C51.3092 68.7565 51.5909 68.4748 51.5909 68.1347C51.5909 67.7946 51.3173 67.5129 50.969 67.5129ZM36.2002 63.9137C35.8601 63.9137 35.5784 64.1954 35.5784 64.5356C35.5784 64.8757 35.8601 65.1574 36.2002 65.1574H56.0358C56.3759 65.1574 56.6576 64.8757 56.6576 64.5356C56.6576 64.1954 56.3759 63.9137 56.0358 63.9137H36.2002ZM36.2002 61.5502H54.8334C55.1735 61.5502 55.4552 61.2685 55.4552 60.9284C55.4552 60.5883 55.1735 60.3066 54.8334 60.3066H36.2002C35.8601 60.3066 35.5784 60.5883 35.5784 60.9284C35.5784 61.2685 35.8601 61.5502 36.2002 61.5502ZM28.2888 33.2888C28.2888 28.0643 32.5346 23.8185 37.7591 23.8185C42.9836 23.8185 47.2294 28.0643 47.2294 33.2888C47.2294 38.5132 42.9836 42.759 37.7591 42.759C32.5346 42.759 28.2888 38.5132 28.2888 33.2888ZM29.533 33.2888C29.533 37.825 33.2235 41.5149 37.7591 41.5149C42.2953 41.5149 45.9852 37.8244 45.9852 33.2888C45.9852 28.7526 42.2953 25.0627 37.7591 25.0627C33.2229 25.0627 29.533 28.7526 29.533 33.2888ZM35.1636 35.8842H31.7386C31.3984 35.8842 31.1167 35.6025 31.1167 35.2624V31.3151C31.1167 30.975 31.3984 30.6933 31.7386 30.6933H35.1636V27.2683C35.1636 26.9281 35.4453 26.6465 35.7854 26.6465H39.7327C40.0728 26.6465 40.3545 26.9281 40.3545 27.2683V30.6933H43.7795C44.1196 30.6933 44.4013 30.975 44.4013 31.3151V35.2624C44.4013 35.6025 44.1196 35.8842 43.7795 35.8842H40.3545V39.3092C40.3545 39.6493 40.0728 39.931 39.7327 39.931H35.7854C35.4453 39.931 35.1636 39.6493 35.1636 39.3092V35.8842ZM35.7854 34.6405C36.1255 34.6405 36.4072 34.9222 36.4072 35.2624V38.6874H39.1109V35.2624C39.1109 34.9222 39.3926 34.6405 39.7327 34.6405H43.1577V31.9369H39.7327C39.3926 31.9369 39.1109 31.6552 39.1109 31.315V27.89H36.4072V31.315C36.4072 31.6552 36.1255 31.9369 35.7854 31.9369H32.3604V34.6405H35.7854ZM20.2116 54.2111C20.5349 54.3273 20.8919 54.1532 21.0075 53.8299L21.9446 51.1927L23.0477 55.4385C23.1223 55.7202 23.3878 55.9111 23.6782 55.903C23.9686 55.8949 24.2173 55.6791 24.2671 55.3887L25.262 49.6916L26.2737 55.6206C26.3234 55.9191 26.5803 56.1349 26.8793 56.1349H26.8874C27.1778 56.1349 27.4346 55.9278 27.493 55.6374L28.5047 50.7449L29.4997 55.4304C29.5575 55.704 29.7901 55.903 30.0718 55.9197C30.3535 55.9365 30.6109 55.7624 30.6936 55.4969L32.3109 50.6703C32.4185 50.347 32.2444 49.9901 31.9211 49.8825C31.5977 49.7749 31.2408 49.949 31.1332 50.2723L30.2459 52.9344L29.1098 47.5855C29.052 47.2952 28.7946 47.0962 28.5042 47.0962C28.2138 47.0962 27.957 47.3033 27.8986 47.5936L26.9534 52.1547L25.8919 45.9185C25.8422 45.6201 25.5854 45.4043 25.2782 45.4043C24.9797 45.4043 24.7142 45.62 24.6645 45.9185L23.5452 52.345L22.6498 48.9119C22.5832 48.6464 22.3513 48.4561 22.0777 48.4474C21.796 48.4474 21.5553 48.6047 21.464 48.8621L19.8466 53.4065C19.7222 53.7385 19.8883 54.0948 20.2116 54.2111V54.2111ZM35.5781 55.1065C35.5781 55.4466 35.8598 55.7283 36.1999 55.7283H55.763C56.1031 55.7283 56.3848 55.4466 56.3848 55.1065C56.3848 54.7664 56.1031 54.4847 55.763 54.4847H36.1999C35.8598 54.4847 35.5781 54.7664 35.5781 55.1065ZM36.1999 52.1212H50.1809C50.521 52.1212 50.8027 51.8395 50.8027 51.4993C50.8027 51.1592 50.521 50.8775 50.1809 50.8775H36.1999C35.8598 50.8775 35.5781 51.1592 35.5781 51.4993C35.5781 51.8395 35.8598 52.1212 36.1999 52.1212ZM35.5781 47.9002C35.5781 48.2404 35.8598 48.5221 36.1999 48.5221H53.5062C53.8464 48.5221 54.1281 48.2404 54.1281 47.9002C54.1281 47.5601 53.8464 47.2784 53.5062 47.2784H36.1999C35.8598 47.2784 35.5781 47.552 35.5781 47.9002ZM29.524 60.6793L23.3543 60.7788C23.0142 60.7869 22.7406 61.0691 22.7406 61.4093C22.7406 61.7494 23.0223 62.023 23.3711 62.023L27.9981 61.9484L22.1598 67.7866C21.9192 68.0273 21.9192 68.4252 22.1598 68.6659C22.2842 68.7902 22.4415 68.8481 22.5994 68.8481C22.7568 68.8481 22.9147 68.7903 23.0391 68.6659L28.8773 62.8276L28.8027 67.4546C28.7946 67.7947 29.0682 68.0851 29.4164 68.0851H29.4245C29.7647 68.0851 30.0383 67.8115 30.0464 67.4714L30.1459 61.3017C30.1459 61.1356 30.0793 60.9702 29.9636 60.8539C29.8474 60.7371 29.7149 60.6793 29.524 60.6793L29.524 60.6793Z" fill="white"/>
</svg>
