<svg width="40" height="42" viewBox="0 0 40 42" fill="none" xmlns="http://www.w3.org/2000/svg">
<path d="M13.338 27.8499C13.338 35.098 19.3079 41.0714 26.5518 41.0714C33.815 41.0714 39.7656 35.0735 39.7656 27.8499C39.7656 21.8571 35.7813 16.6711 30.0302 15.109V3.99114H30.142C31.2066 3.99114 32.0732 3.12506 32.0732 2.06018C32.0732 0.995529 31.2069 0.128906 30.142 0.128906H22.9626C21.898 0.128906 21.0313 0.99522 21.0313 2.06018C21.0313 3.12483 21.8976 3.99114 22.9626 3.99114H23.0663V15.109C17.3194 16.6708 13.3393 21.8563 13.3393 27.8499H13.338ZM26.5518 40.1048C20.7558 40.1048 15.6901 35.9144 14.5584 30.2552H38.5452C37.4034 35.9635 32.2973 40.1048 26.5518 40.1048ZM21.998 2.05948C21.998 1.52792 22.4307 1.09551 22.962 1.09551H30.1413C30.6729 1.09551 31.1053 1.52823 31.1053 2.05948C31.1053 2.59104 30.6726 3.02315 30.1413 3.02315H22.962C22.4307 3.02315 21.998 2.59103 21.998 2.05948ZM29.0626 3.99045V15.484C29.0626 15.7073 29.2157 15.9016 29.4326 15.9541C34.9468 17.2857 38.7985 22.1776 38.7985 27.8503C38.7985 28.3375 38.7621 28.8158 38.7066 29.2886L14.3974 29.2883C14.3419 28.8158 14.3055 28.3376 14.3055 27.85C14.3055 22.1763 18.1533 17.2845 23.6629 15.9538C23.8799 15.9016 24.0329 15.707 24.0329 15.4837V3.99015L29.0626 3.99045Z" fill="black"/>
<path d="M36.085 27.8498H37.0523C37.0523 24.3781 35.3485 21.1411 32.4949 19.1906L31.9489 19.9891C34.5388 21.7592 36.085 24.6979 36.085 27.85L36.085 27.8498Z" fill="#FF9500"/>
<path d="M6.87568 38.359C7.87282 38.359 8.68375 37.5478 8.68375 36.5507V31.8983H7.71646V36.5507C7.71646 37.0145 7.33918 37.392 6.87544 37.392C6.41171 37.392 6.03443 37.0145 6.03443 36.5507H5.06714C5.06774 37.5476 5.87884 38.359 6.87568 38.359Z" fill="#FF9500"/>
<path d="M2.00798 4.32553H2.35452V36.5504C2.35452 39.0437 4.38253 41.0717 6.87548 41.0717C9.36874 41.0717 11.3967 39.0437 11.3967 36.5504V4.32553H11.7433C12.7211 4.32553 13.5163 3.53003 13.5163 2.55248L13.5166 1.90159C13.5166 0.924033 12.7214 0.128536 11.7436 0.128536L2.00816 0.128235C1.0306 0.128235 0.235107 0.923732 0.235107 1.90129V2.55248C0.235107 3.53003 1.0306 4.32553 2.00816 4.32553L2.00798 4.32553ZM10.4297 21.7066H3.32165V4.32939H10.4297V21.7066ZM10.4297 36.5496C10.4297 38.5095 8.83528 40.1036 6.87569 40.1036C4.91611 40.1036 3.32203 38.5092 3.32203 36.5496L3.32173 22.6732H10.4297L10.4297 36.5496ZM1.20184 1.90093C1.20184 1.45646 1.56314 1.09487 2.0079 1.09487H11.7433C12.1878 1.09487 12.5494 1.45617 12.5494 1.90093V2.55213C12.5494 2.9966 12.1881 3.35819 11.7433 3.35819L2.00713 3.35789C1.56266 3.35789 1.20107 2.99658 1.20107 2.55182L1.20184 1.90093Z" fill="black"/>
<path d="M21.9147 19.8417C20.6822 19.8417 19.6791 20.8448 19.6791 22.0776C19.6791 23.3101 20.6822 24.3132 21.9147 24.3132C23.1474 24.3132 24.1506 23.31 24.1506 22.0776C24.1506 20.8448 23.1477 19.8417 21.9147 19.8417ZM21.9147 23.3463C21.2153 23.3463 20.6464 22.7773 20.6464 22.078C20.6464 21.3786 21.2153 20.8094 21.9147 20.8094C22.6141 20.8094 23.1833 21.3786 23.1833 22.078C23.1836 22.7774 22.6144 23.3463 21.9147 23.3463Z" fill="black"/>
<path d="M6.07728 16.4474C7.31002 16.4474 8.31288 15.4442 8.31288 14.2115C8.31288 12.979 7.31002 11.9759 6.07728 11.9759C4.84453 11.9759 3.84167 12.9791 3.84167 14.2115C3.84167 15.4445 4.84453 16.4474 6.07728 16.4474ZM6.07728 12.9431C6.77668 12.9431 7.34558 13.512 7.34558 14.2114C7.34558 14.9108 6.77665 15.48 6.07728 15.48C5.37787 15.48 4.80897 14.9108 4.80897 14.2114C4.80897 13.512 5.3776 12.9431 6.07728 12.9431Z" fill="black"/>
<path d="M26.5518 20.5977C27.7845 20.5977 28.7874 19.5948 28.7874 18.3621C28.7874 17.1293 27.7845 16.1262 26.5518 16.1262C25.319 16.1262 24.3162 17.1293 24.3162 18.3621C24.3162 19.5948 25.3187 20.5977 26.5518 20.5977ZM26.5518 17.0931C27.2512 17.0931 27.8201 17.6623 27.8201 18.3617C27.8201 19.0611 27.2511 19.63 26.5518 19.63C25.8524 19.63 25.2835 19.0611 25.2835 18.3617C25.2832 17.6623 25.8521 17.0931 26.5518 17.0931Z" fill="black"/>
<path d="M6.87574 10.2088C8.10848 10.2088 9.11165 9.20595 9.11165 7.97321C9.11165 6.74047 8.10848 5.73761 6.87574 5.73761C5.64322 5.73761 4.64014 6.74047 4.64014 7.97321C4.64014 9.20626 5.6433 10.2088 6.87574 10.2088ZM6.87574 6.70483C7.57514 6.70483 8.14435 7.27376 8.14435 7.97313C8.14435 8.67254 7.57512 9.24144 6.87574 9.24144C6.17633 9.24144 5.60743 8.67251 5.60743 7.97313C5.60743 7.27373 6.17636 6.70483 6.87574 6.70483Z" fill="black"/>
<path d="M26.1783 23.9457C25.2764 23.9457 24.5424 24.6794 24.5424 25.5816C24.5424 26.4835 25.2761 27.2176 26.1783 27.2176C27.0802 27.2176 27.8143 26.4839 27.8143 25.5816C27.814 24.6795 27.0802 23.9457 26.1783 23.9457ZM26.1783 26.2503C25.8098 26.2503 25.5097 25.9502 25.5097 25.5816C25.5097 25.2131 25.8098 24.913 26.1783 24.913C26.5469 24.913 26.847 25.2131 26.847 25.5816C26.847 25.9502 26.5469 26.2503 26.1783 26.2503Z" fill="black"/>
<path d="M6.07725 17.6516C5.17538 17.6516 4.44128 18.3853 4.44128 19.2875C4.44128 20.1894 5.17504 20.9235 6.07725 20.9235C6.97913 20.9235 7.71322 20.1897 7.71322 19.2875C7.71322 18.3853 6.97916 17.6516 6.07725 17.6516ZM6.07725 19.9559C5.70872 19.9559 5.40858 19.6558 5.40858 19.2872C5.40858 18.9187 5.70871 18.6185 6.07725 18.6185C6.44579 18.6185 6.74593 18.9187 6.74593 19.2872C6.74593 19.656 6.4458 19.9559 6.07725 19.9559Z" fill="black"/>
</svg>
