<svg width="73" height="67" viewBox="0 0 73 67" fill="none" xmlns="http://www.w3.org/2000/svg">
<path d="M60.112 22.0916H55.2904V12.8884C55.2904 5.78404 49.517 0 42.402 0H12.8884C5.78356 0 0 5.78404 0 12.8884V23.4325C0 30.5373 5.78404 36.3209 12.8884 36.3209H17.71V45.5343C17.71 52.639 23.494 58.4226 30.5983 58.4226H39.9857V65.6908C39.9857 65.906 40.1086 66.0902 40.3131 66.1618C40.3745 66.1821 40.436 66.2029 40.4974 66.2029C40.6405 66.2029 40.774 66.1415 40.876 66.039L48.0012 58.4225H60.1116C67.2164 58.4225 73 52.6385 73 45.5342V34.99C73.0009 27.8857 67.2271 22.091 60.1116 22.091L60.112 22.0916ZM1.0232 23.4326V12.8885C1.0232 6.34712 6.34629 1.0239 12.8878 1.0239H42.4014C48.9428 1.0239 54.266 6.347 54.266 12.8885V23.4326C54.266 29.974 48.9429 35.2972 42.4014 35.2972H32.5024C32.2156 35.2972 31.9907 35.5226 31.9907 35.8089V42.2989L25.5925 35.4606C25.5002 35.3581 25.357 35.2967 25.2138 35.2967H12.8788C6.34662 35.3068 1.02364 29.9837 1.02364 23.4321L1.0232 23.4326ZM71.9765 45.5351C71.9765 52.0764 66.6535 57.3997 60.112 57.3997H47.7769C47.6337 57.3997 47.5003 57.4611 47.3982 57.5636L41.0102 64.3917V57.9119C41.0102 57.6251 40.7848 57.4002 40.4985 57.4002H30.5995C24.0581 57.4002 18.7349 52.0771 18.7349 45.5356V36.3223H25.0001L32.1252 43.9387C32.2277 44.0412 32.3607 44.1026 32.5039 44.1026C32.5653 44.1026 32.6267 44.0925 32.6882 44.0615C32.8826 43.9798 33.0156 43.7955 33.0156 43.5905V36.3223H42.403C49.5078 36.3223 55.2913 30.5383 55.2913 23.434V23.1167H60.1129C66.6543 23.1167 71.9775 28.4398 71.9775 34.9919L71.9765 45.5351Z" fill="white"/>
<path d="M14.9661 14.5265H40.3232C40.6099 14.5265 40.8348 14.3011 40.8348 14.0148C40.8348 13.728 40.6095 13.5031 40.3232 13.5031L14.9661 13.5027C14.6794 13.5027 14.4545 13.728 14.4545 14.0144C14.454 14.3016 14.6794 14.5265 14.9661 14.5265Z" fill="white"/>
<path d="M40.3232 23.2277C40.6099 23.2277 40.8348 23.0023 40.8348 22.716C40.8348 22.4292 40.6095 22.2043 40.3232 22.2043L14.9661 22.2039C14.6794 22.2039 14.4545 22.4292 14.4545 22.7155C14.4545 23.0023 14.6798 23.2272 14.9661 23.2272L40.3232 23.2277Z" fill="white"/>
</svg>
