<svg width="43" height="39" viewBox="0 0 43 39" fill="none" xmlns="http://www.w3.org/2000/svg">
<path d="M40.0294 23.4788H39.904L40.012 14.8665C40.0238 13.9901 39.7871 13.1281 39.3291 12.3804C38.8715 11.633 38.2113 11.0305 37.4251 10.6424C38.8524 9.9885 39.9003 8.71467 40.2668 7.188C40.6336 5.66134 40.2786 4.05097 39.3041 2.81998C38.3296 1.58899 36.8437 0.873824 35.2735 0.880061C33.7034 0.886646 32.2234 1.61427 31.2591 2.85319C30.2948 4.09244 29.9533 5.70576 30.3326 7.22947C30.7119 8.75285 31.7701 10.0178 33.203 10.6602C32.3035 11.1175 31.5752 11.8526 31.1261 12.7564L26.8855 19.0999C26.6662 19.4282 26.2975 19.6257 25.9027 19.6254H20.0847C20.0489 19.6254 20.0133 19.6297 19.9787 19.6382C19.9073 19.6297 19.8352 19.6254 19.7631 19.6254H16.2866C16.019 19.6251 15.7572 19.5451 15.535 19.3956C15.3127 19.2461 15.1399 19.0341 15.0385 18.7865L11.9334 12.1331C11.5103 11.3021 10.837 10.6252 10.0086 10.1972C11.4444 9.55484 12.5049 8.28727 12.8839 6.76061C13.2625 5.23394 12.9175 3.61768 11.9485 2.37876C10.9792 1.13985 9.49366 0.415833 7.92055 0.415833C6.34744 0.415833 4.8619 1.13983 3.89262 2.37876C2.92367 3.61768 2.5786 5.23394 2.95722 6.76061C3.33617 8.28727 4.39665 9.55485 5.83245 10.1972C5.40016 10.4214 5.00704 10.7148 4.66889 11.0658C3.82569 11.9336 3.37468 13.1087 3.4207 14.318L3.77826 24.4711H2.55612C1.91245 24.4717 1.29545 24.7279 0.84048 25.1829C0.385472 25.6379 0.129648 26.2549 0.128662 26.8985V31.2313C0.12965 31.8746 0.385472 32.4916 0.84048 32.9467C1.29549 33.4017 1.91251 33.6578 2.55612 33.6585H4.10293L4.26689 38.3278C4.27578 38.5809 4.48386 38.7818 4.73737 38.7821H4.75482C4.87961 38.7778 4.99747 38.7242 5.08241 38.633C5.16736 38.5414 5.2128 38.4203 5.20819 38.2955L4.36204 14.2842C4.32813 13.3301 4.68371 12.4033 5.34683 11.7164C6.00993 11.0296 6.92357 10.6418 7.87802 10.6418H7.96198C8.60728 10.6401 9.24076 10.8163 9.79224 11.1518C10.3437 11.4869 10.7918 11.968 11.0871 12.5418L14.1774 19.1674C14.3515 19.5826 14.6449 19.9372 15.0202 20.1861C15.3956 20.4353 15.8361 20.5677 16.2865 20.5667H19.7629C20.2973 20.5832 20.7217 21.0211 20.7217 21.5554C20.7217 22.0901 20.2973 22.528 19.7629 22.5441H14.4279C13.4398 22.5411 12.5242 22.0252 12.0099 21.1817L7.60073 13.8989C7.53784 13.7882 7.43281 13.7079 7.30968 13.676C7.18655 13.6437 7.05584 13.6628 6.94718 13.7287C6.8382 13.7945 6.76084 13.9015 6.73219 14.0253C6.70354 14.1494 6.72593 14.2795 6.79474 14.3865L11.2033 21.6693C11.232 21.7163 11.2622 21.7615 11.2955 21.8056L10.6344 38.2935C10.6291 38.4187 10.6739 38.5405 10.7585 38.6323C10.8434 38.7242 10.9613 38.7785 11.0861 38.7831H11.1055C11.3581 38.7825 11.5655 38.583 11.5757 38.3304L11.7601 33.6591H13.2259C13.8692 33.6585 14.4862 33.4027 14.9412 32.9476C15.3959 32.4926 15.6518 31.8756 15.6524 31.232V26.8992C15.6518 26.2559 15.3959 25.6389 14.9412 25.1838C14.4862 24.7288 13.8692 24.4727 13.2259 24.472H12.1288L12.197 22.7528C12.8436 23.2292 13.6248 23.4873 14.4279 23.4903H19.7629C19.8351 23.4899 19.9068 23.486 19.9786 23.4784C20.0135 23.486 20.0491 23.4899 20.0846 23.4903H26.8522C27.5383 23.4883 28.205 23.2618 28.7503 22.845L30.9628 21.1533L31.0872 23.5298C30.439 23.6555 29.8549 24.0026 29.4345 24.5119C29.014 25.0209 28.7836 25.6603 28.7826 26.3204V29.9433C28.7836 30.6835 29.0733 31.3936 29.5896 31.924C30.1058 32.4541 30.8084 32.762 31.5482 32.7827L31.8247 38.3351C31.8369 38.5859 32.0437 38.7832 32.2949 38.7832H32.3189C32.4437 38.7769 32.5609 38.7216 32.6449 38.6287C32.7285 38.5362 32.7723 38.4141 32.766 38.289L32.4895 32.7854H38.831L38.7592 38.3064C38.7556 38.5652 38.9613 38.7786 39.2201 38.7842H39.2267C39.4845 38.7838 39.6939 38.5764 39.6975 38.3186L39.7693 32.7874H40.0294C40.783 32.7867 41.5058 32.4871 42.0388 31.9541C42.5715 31.4213 42.8714 30.699 42.8724 29.9454V26.3204C42.8714 25.5668 42.5715 24.8444 42.0388 24.3114C41.5057 23.7787 40.7831 23.4795 40.0294 23.4788ZM2.55599 32.7182C2.16221 32.7179 1.78458 32.5612 1.50638 32.2826C1.22784 32.0044 1.07112 31.6268 1.07079 31.233V26.9002C1.07112 26.5065 1.22784 26.1292 1.50638 25.8506C1.78459 25.5724 2.16222 25.4157 2.55599 25.415H3.81142L4.06955 32.7199L2.55599 32.7182ZM7.91934 9.6998C6.81309 9.6998 5.75193 9.26027 4.96968 8.478C4.18741 7.69539 3.74787 6.63425 3.74787 5.528C3.74787 4.42141 4.18774 3.36059 4.97002 2.57833C5.75263 1.79606 6.81377 1.35653 7.92002 1.35687C9.0266 1.35687 10.0874 1.79674 10.8697 2.57901C11.652 3.36162 12.0911 4.42276 12.0908 5.52935C12.0895 6.63492 11.6493 7.69507 10.8673 8.47707C10.0854 9.25869 9.02534 9.69845 7.91934 9.6998ZM13.2257 25.4132C13.6195 25.4135 13.9968 25.5702 14.275 25.8488C14.5532 26.127 14.7096 26.5046 14.7099 26.8984V31.2312C14.7096 31.6246 14.5532 32.0023 14.275 32.2805C13.9968 32.559 13.6195 32.7157 13.2257 32.716H11.7978L12.0909 25.4112L13.2257 25.4132ZM30.8608 20.0459L28.1782 22.095C27.7966 22.3851 27.3307 22.5428 26.8517 22.5441H21.407C21.5861 22.2402 21.6799 21.8939 21.6789 21.5413C21.6793 21.1985 21.5871 20.8617 21.4126 20.5668H25.9041C26.6136 20.5674 27.2757 20.2128 27.6691 19.6229L30.6626 15.1435L30.9079 20.0146C30.8914 20.0238 30.8756 20.0344 30.8608 20.0459ZM31.1209 5.99544C31.1206 4.88919 31.5598 3.82804 32.342 3.04545C33.1243 2.26317 34.1851 1.8233 35.2917 1.8233C36.398 1.82297 37.4591 2.26251 38.2417 3.04477C39.024 3.82704 39.4635 4.88785 39.4638 5.99443C39.4638 7.10068 39.0243 8.16184 38.242 8.9441C37.4598 9.72671 36.3986 10.1662 35.2924 10.1662C34.1865 10.1649 33.1263 9.72505 32.3443 8.94342C31.562 8.16148 31.1223 7.10144 31.1209 5.99544ZM31.9506 13.2174L32.535 12.3436C32.56 12.3149 32.5837 12.2873 32.6097 12.2596C33.3051 11.5215 34.2754 11.1047 35.2894 11.1083H35.376C36.3647 11.1083 37.3123 11.5044 38.0067 12.2086C38.7007 12.9126 39.0839 13.8654 39.0701 14.8541L38.9512 24.3329C38.9298 24.9627 38.4106 25.4606 37.7804 25.4563C37.1506 25.452 36.6383 24.9469 36.6251 24.3171V15.3086C36.6251 15.0485 36.4144 14.8375 36.1543 14.8375C35.8939 14.8375 35.6832 15.0485 35.6832 15.3086V23.4784H32.0243L31.5976 14.9976C31.5641 14.3845 31.6842 13.7728 31.9476 13.2184L31.9506 13.2174ZM41.9283 29.943C41.9277 30.4465 41.7272 30.9291 41.3713 31.2854C41.0154 31.6416 40.5327 31.8421 40.0293 31.8431H31.6218C31.118 31.8425 30.6354 31.6419 30.2791 31.2857C29.9229 30.9295 29.7224 30.4468 29.7217 29.943V26.3201C29.7224 25.8164 29.9229 25.3337 30.2791 24.9774C30.6353 24.6212 31.118 24.4207 31.6218 24.42H35.6853C35.7254 25.1434 36.1347 25.7956 36.7688 26.1462C37.4029 26.4968 38.1726 26.4968 38.8068 26.1462C39.4406 25.7955 39.8498 25.1434 39.89 24.42H40.0293C40.5327 24.421 41.0154 24.6215 41.3713 24.9778C41.7272 25.334 41.9277 25.8167 41.9284 26.3201L41.9283 29.943Z" fill="#123148"/>
</svg>
