<svg width="81" height="68" viewBox="0 0 81 68" fill="none" xmlns="http://www.w3.org/2000/svg">
<path d="M74.9115 0.345459H12.0435C10.4667 0.347217 8.95499 0.974169 7.84004 2.08921C6.725 3.20425 6.09749 4.71601 6.09569 6.29266V32.2472C2.24429 36.1754 0.10334 41.4675 0.14024 46.9683C0.17774 52.4691 2.38964 57.732 6.29324 61.608C10.1973 65.4834 15.4761 67.6572 20.9775 67.6544C31.972 67.6544 41.004 59.0945 41.763 48.2894H74.9115C76.4889 48.2876 78.0006 47.6601 79.1149 46.5456C80.23 45.4306 80.8575 43.9188 80.8593 42.3422V6.29266C80.8575 4.71586 80.23 3.20416 79.1155 2.08921C78.0005 0.974169 76.4887 0.347259 74.9115 0.345459ZM20.9775 65.6855C15.9736 65.6855 11.1742 63.6974 7.63574 60.1589C4.09664 56.6204 2.10914 51.821 2.10914 46.8171C2.10914 41.8127 4.09724 37.0133 7.63574 33.4748C11.1742 29.9363 15.9736 27.9482 20.9775 27.9482C25.9819 27.9482 30.7813 29.9363 34.3198 33.4748C37.8583 37.0133 39.8464 41.8127 39.8464 46.8171C39.8406 51.8199 37.8507 56.6157 34.3134 60.153C30.7761 63.6903 25.9801 65.6802 20.9775 65.6855ZM78.891 42.3425C78.8898 43.3971 78.4703 44.4084 77.7244 45.155C76.9785 45.9009 75.9671 46.3204 74.9119 46.3215H41.8099C41.6892 41.1337 39.6361 36.1778 36.0524 32.4244C32.4688 28.6714 27.6131 26.3909 22.4365 26.0306C17.2597 25.6703 12.1351 27.2552 8.06574 30.4756V6.29405C8.06692 5.23937 8.48645 4.2281 9.23234 3.48215C9.97883 2.73625 10.9902 2.31673 12.0448 2.31556H74.9128C75.9681 2.31673 76.9794 2.73626 77.7253 3.48215C78.4712 4.22806 78.8908 5.2394 78.8919 6.29405L78.891 42.3425Z" fill="white"/>
<path d="M63.372 27.8033C62.2663 27.8016 61.1748 28.0506 60.1792 28.531C57.8952 27.433 55.2075 27.5848 53.0625 28.9336C50.9173 30.2824 49.6155 32.639 49.6155 35.1727C49.6155 37.7069 50.9174 40.063 53.0625 41.4118C55.2076 42.7606 57.8953 42.913 60.1792 41.8149C62.2002 42.7864 64.5532 42.7852 66.5736 41.8114C68.5933 40.8376 70.0599 38.9971 70.5585 36.8104C71.0565 34.6243 70.5321 32.3297 69.1335 30.5771C67.7349 28.8239 65.6143 27.8033 63.372 27.8039V27.8033ZM56.9865 40.5739C55.4449 40.5762 53.976 39.9194 52.9494 38.7698C51.9228 37.6196 51.4365 36.0856 51.6128 34.5545C51.7898 33.0229 52.6119 31.64 53.8733 30.7535C55.1343 29.8676 56.7141 29.5623 58.2145 29.915C56.7995 31.2984 56.002 33.1939 56.002 35.1733C56.002 37.1525 56.7995 39.0481 58.2145 40.4315C57.812 40.5259 57.4 40.5739 56.9864 40.5739L56.9865 40.5739ZM62.3877 35.1727C62.3871 36.893 61.5668 38.5096 60.1792 39.5257C58.7911 38.5096 57.9708 36.893 57.9708 35.1727C57.9708 33.4529 58.7911 31.8358 60.1792 30.8197C61.5667 31.8363 62.3871 33.4529 62.3877 35.1727ZM63.3721 40.5739C62.9584 40.5739 62.5459 40.5258 62.1433 40.4315C63.5584 39.0475 64.3558 37.152 64.3558 35.1732C64.3558 33.194 63.5584 31.2984 62.1433 29.915C63.6428 29.564 65.2207 29.8704 66.4804 30.757C67.7402 31.6435 68.5611 33.0251 68.7375 34.555C68.9139 36.0854 68.4287 37.6177 67.4039 38.7673C66.3791 39.9169 64.912 40.5743 63.3721 40.5743V40.5739Z" fill="white"/>
<path d="M13.5569 11.3154H39.8219C40.3656 11.3154 40.8063 10.8748 40.8063 10.3311C40.8063 9.7873 40.3656 9.34668 39.8219 9.34668H13.5569C13.0131 9.34668 12.5725 9.7873 12.5725 10.3311C12.5725 10.8748 13.0131 11.3154 13.5569 11.3154Z" fill="white"/>
<path d="M46.2345 9.34595H43.3904C42.8466 9.34595 42.406 9.78657 42.406 10.3303C42.406 10.8741 42.8466 11.3147 43.3904 11.3147H46.2345C46.7783 11.3147 47.2189 10.8741 47.2189 10.3303C47.2189 9.78657 46.7783 9.34595 46.2345 9.34595Z" fill="white"/>
<path d="M14.7841 14.3093H13.5571C13.0134 14.3093 12.5728 14.75 12.5728 15.2937C12.5728 15.8375 13.0134 16.2781 13.5571 16.2781H14.7841C15.3278 16.2781 15.7685 15.8375 15.7685 15.2937C15.7685 14.75 15.3278 14.3093 14.7841 14.3093Z" fill="white"/>
<path d="M34.8585 14.3093H18.4575C17.9138 14.3093 17.4731 14.75 17.4731 15.2937C17.4731 15.8375 17.9138 16.2781 18.4575 16.2781H34.8585C35.4023 16.2781 35.8429 15.8375 35.8429 15.2937C35.8429 14.75 35.4023 14.3093 34.8585 14.3093Z" fill="white"/>
<path d="M46.2344 14.3093H38.4268C37.883 14.3093 37.4424 14.75 37.4424 15.2937C37.4424 15.8375 37.883 16.2781 38.4268 16.2781H46.2344C46.7782 16.2781 47.2188 15.8375 47.2188 15.2937C47.2188 14.75 46.7782 14.3093 46.2344 14.3093Z" fill="white"/>
<path d="M29.3805 40.918L17.5006 50.5837L12.7036 44.9663V44.9658C12.3497 44.5556 11.7309 44.5087 11.319 44.8603C10.9071 45.2124 10.8567 45.8306 11.2065 46.2443L16.6277 52.5929C16.9746 52.9995 17.5828 53.0546 17.9976 52.7171L30.624 42.4455C31.0459 42.1022 31.1097 41.4823 30.7664 41.061C30.423 40.6391 29.8031 40.5752 29.3818 40.918L29.3805 40.918Z" fill="white"/>
</svg>
