<svg width="62" height="62" viewBox="0 0 62 62" fill="none" xmlns="http://www.w3.org/2000/svg">
<path d="M31.0001 62C28.2347 62 25.4927 61.636 22.851 60.9173C22.5387 60.8328 22.354 60.5102 22.439 60.1985C22.5235 59.8869 22.8444 59.7016 23.1577 59.7866C25.6998 60.4781 28.3388 60.8279 31.0001 60.8279C34.5192 60.8279 37.9646 60.222 41.2388 59.0242C41.5418 58.9125 41.8796 59.0689 41.9903 59.3724C42.102 59.677 41.945 60.0132 41.6421 60.1238C38.2381 61.3684 34.658 61.9999 31 61.9999L31.0001 62ZM20.0382 59.9631C19.9679 59.9631 19.896 59.9505 19.8262 59.9233C13.8181 57.6014 8.75049 53.5293 5.16934 48.1456C4.99062 47.8759 5.06308 47.5119 5.33281 47.3337C5.60146 47.1539 5.96709 47.2275 6.14472 47.4972C9.59126 52.6782 14.4682 56.5971 20.2492 58.8313C20.5505 58.9479 20.7009 59.2868 20.5843 59.5892C20.4944 59.8208 20.2726 59.963 20.0378 59.963L20.0382 59.9631ZM44.3161 58.9381C44.0987 58.9381 43.8905 58.8177 43.7886 58.609C43.6464 58.3175 43.7674 57.9676 44.0584 57.8254C49.6382 55.1047 54.1686 50.7879 57.1596 45.3433C57.3149 45.0605 57.669 44.9542 57.9557 45.1122C58.239 45.2675 58.3425 45.6239 58.1867 45.9083C55.0786 51.5666 50.37 56.0518 44.5721 58.8787C44.4893 58.9185 44.4021 58.9381 44.316 58.9381L44.3161 58.9381ZM4.06446 45.7225C3.85358 45.7225 3.65032 45.6086 3.54516 45.4092C1.22659 40.9987 0 36.0161 0 31.0006C0 29.6264 0.0904549 28.2445 0.270274 26.8926C0.312232 26.5717 0.609208 26.3428 0.92797 26.3886C1.24838 26.4305 1.47397 26.7253 1.43092 27.0463C1.25927 28.347 1.17154 29.677 1.17154 31.0007C1.17154 35.8275 2.35126 40.6211 4.58153 44.8642C4.73138 45.1503 4.6224 45.504 4.33524 45.6555C4.24914 45.7007 4.15595 45.723 4.06442 45.723L4.06446 45.7225ZM59.0329 43.4012C58.9566 43.4012 58.8798 43.3864 58.8046 43.3548C58.5071 43.229 58.3671 42.8846 58.4929 42.5871C60.042 38.9166 60.8273 35.0183 60.8273 30.9997C60.8273 28.8326 60.5929 26.6682 60.132 24.5692C60.0622 24.2526 60.2622 23.9404 60.5782 23.8706C60.8932 23.8025 61.2071 24.0003 61.2768 24.3169C61.7558 26.4993 61.9993 28.7476 61.9993 30.9996C61.9993 35.1753 61.1831 39.2261 59.5739 43.0431C59.478 43.2671 59.2611 43.4011 59.0328 43.4011L59.0329 43.4012ZM1.4224 24.4841C1.37608 24.4841 1.33086 24.4786 1.28508 24.4677C0.971218 24.392 0.77669 24.0765 0.851334 23.7615C2.3498 17.5028 5.71571 11.9392 10.5866 7.67204C10.8302 7.46008 11.1997 7.48404 11.4138 7.72653C11.6263 7.9701 11.6018 8.33955 11.3593 8.5537C6.67196 12.6591 3.4337 18.0117 1.99242 24.0336C1.92704 24.3033 1.68728 24.4837 1.42246 24.4837L1.4224 24.4841ZM59.8769 22.0172C59.6317 22.0172 59.4028 21.8619 59.3205 21.6156C57.3725 15.735 53.6938 10.6729 48.6823 6.9783C48.4223 6.78595 48.3668 6.41977 48.5586 6.15876C48.7493 5.89883 49.1171 5.84326 49.3781 6.03506C54.5852 9.87442 58.4083 15.135 60.4326 21.2471C60.534 21.5539 60.3678 21.8863 60.0616 21.9876C60 22.0089 59.9379 22.0182 59.8768 22.0182L59.8769 22.0172ZM13.4247 6.76611C13.241 6.76611 13.0601 6.68001 12.9468 6.51927C12.7593 6.25499 12.822 5.88882 13.0852 5.70191C18.3408 1.97206 24.5359 0 31.0021 0C36.5422 0.000544872 41.9792 1.48103 46.7247 4.27863C47.0026 4.44319 47.0963 4.80282 46.9323 5.08073C46.7677 5.35863 46.4081 5.45182 46.1302 5.28834C41.5645 2.59537 36.3334 1.17209 31.0018 1.17041C24.7806 1.17041 18.8193 3.06728 13.7643 6.65485C13.6597 6.73059 13.5403 6.76601 13.4237 6.76601L13.4247 6.76611Z" fill="white"/>
<path d="M31.0001 59.0455C26.9498 59.0455 23.6554 55.7505 23.6554 51.7007V49.0383C23.6554 48.7146 23.918 48.4525 24.2411 48.4525C24.5648 48.4525 24.8269 48.7152 24.8269 49.0383V51.7007C24.8269 55.1042 27.5962 57.8734 30.9996 57.8734C32.6981 57.8734 34.2838 57.1912 35.4641 55.9531C35.6875 55.7188 36.0585 55.7096 36.2929 55.9335C36.5272 56.1569 36.5359 56.528 36.3125 56.7623C34.9093 58.2347 33.0228 59.0455 31.0001 59.0455ZM37.46 54.2754C37.4028 54.2754 37.3445 54.2667 37.2857 54.2487C36.9762 54.1534 36.8045 53.8248 36.9004 53.5158C37.0819 52.93 37.1745 52.3192 37.1745 51.7013L37.1751 37.7599C37.1751 37.4362 37.4377 37.1741 37.7608 37.1741H40.548C40.8716 37.1741 41.1337 37.4367 41.1337 37.7599C41.1337 38.0835 40.8711 38.3456 40.548 38.3456H38.3466V51.7007C38.3466 52.4363 38.2365 53.1638 38.0191 53.864C37.9412 54.1147 37.7102 54.2754 37.46 54.2754ZM24.2417 46.4996C23.918 46.4996 23.6559 46.237 23.6559 45.9138V38.3467H13.6465C13.3228 38.3467 13.0607 38.0841 13.0607 37.761C13.0607 37.4373 13.3234 37.1752 13.6465 37.1752H24.2405C24.5642 37.1752 24.8263 37.4378 24.8263 37.761V45.9138C24.8274 46.2369 24.5648 46.4996 24.2417 46.4996ZM51.6959 38.3456H43.6721C43.3484 38.3456 43.0863 38.083 43.0863 37.7599C43.0863 37.4362 43.349 37.1741 43.6721 37.1741H51.6959C55.0993 37.1741 57.8697 34.4039 57.8697 31.0003L57.8692 30.9033C57.8621 30.5796 58.1193 30.3121 58.4424 30.305C58.7781 30.311 59.0337 30.5551 59.0408 30.8782L59.0413 31.0003C59.0413 35.0506 55.7462 38.3456 51.6959 38.3456ZM10.5222 38.3456H10.2993C6.24907 38.3456 2.95459 35.0501 2.95459 31.0003C2.95459 28.0524 4.71796 25.3993 7.44469 24.244C7.74384 24.1159 8.08606 24.2571 8.21247 24.554C8.33889 24.8526 8.19939 25.1959 7.90132 25.3218C5.60786 26.2934 4.12516 28.5231 4.12516 31.0003C4.12516 34.4037 6.89444 37.1741 10.2979 37.1741H10.5207C10.8444 37.1741 11.1065 37.4367 11.1065 37.7599C11.1081 38.083 10.8453 38.3456 10.5222 38.3456ZM57.6943 28.4769C57.4823 28.4769 57.2796 28.363 57.1739 28.163C56.1015 26.1109 54.0014 24.8357 51.6964 24.8357H40.3247C40.001 24.8357 39.7389 24.5731 39.7389 24.25C39.7389 23.9263 40.0015 23.6642 40.3247 23.6642H51.6968C54.4404 23.6642 56.9371 25.1795 58.2134 27.6202C58.3627 27.9068 58.2526 28.261 57.966 28.4114C57.8777 28.455 57.7858 28.4769 57.6943 28.4769ZM24.2417 24.8353H10.2992C9.97549 24.8353 9.71339 24.5727 9.71339 24.2495C9.71339 23.9259 9.97603 23.6638 10.2992 23.6638H23.6559V19.444C23.6559 19.1203 23.9186 18.8582 24.2417 18.8582C24.5654 18.8582 24.8275 19.1209 24.8275 19.444V24.2501C24.8275 24.5726 24.5648 24.8353 24.2417 24.8353ZM37.7597 24.2751C37.436 24.2751 37.1739 24.0125 37.1739 23.6894V10.3092C37.1745 8.64666 36.5168 7.08444 35.3218 5.91017C35.0908 5.68348 35.0875 5.31185 35.3142 5.08136C35.5398 4.85033 35.9125 4.84705 36.143 5.07373C37.5642 6.46981 38.3466 8.32902 38.3461 10.3086V23.6888C38.3461 24.0125 38.0834 24.2751 37.7597 24.2751ZM24.2417 16.9047C23.918 16.9047 23.6559 16.6421 23.6559 16.319V10.3092C23.6559 6.2589 26.9509 2.96387 31.0007 2.96387C31.7739 2.96387 32.5379 3.08484 33.2707 3.32459C33.5785 3.4254 33.7458 3.75561 33.645 4.06349C33.5442 4.37027 33.2162 4.53864 32.9061 4.43784C32.2915 4.23731 31.6507 4.13487 31.0006 4.13487C27.5972 4.13487 24.8279 6.90512 24.8279 10.3087V16.3185C24.8274 16.6421 24.5648 16.9047 24.2417 16.9047Z" fill="white"/>
</svg>
