<svg width="48" height="48" viewBox="0 0 48 48" fill="none" xmlns="http://www.w3.org/2000/svg">
<rect width="48" height="48" rx="8" fill="#F5F2FF"/>
<path d="M17.0821 18.1508C16.053 18.1508 15.2201 17.416 15.2201 16.485C15.2201 15.5541 16.053 14.8193 17.0821 14.8193C18.1111 14.8193 18.944 15.5541 18.944 16.485C18.944 17.024 19.3849 17.4649 19.9238 17.4649C20.4628 17.4649 20.9036 17.024 20.9036 16.485C20.9036 14.8193 19.6787 13.3982 18.0619 13.0062V11.3404C18.0619 10.8015 17.621 10.3606 17.0821 10.3606C16.5431 10.3606 16.1022 10.8015 16.1022 11.3404V13.0062C14.4854 13.3982 13.2605 14.8189 13.2605 16.485C13.2605 18.4939 14.9755 20.1108 17.0822 20.1108C18.1112 20.1108 18.9441 20.8456 18.9441 21.7766C18.9441 22.7075 18.1112 23.4423 17.0822 23.4423C16.0531 23.4423 15.2202 22.7075 15.2202 21.7766C15.2202 21.2376 14.7794 20.7967 14.2404 20.7967C13.7015 20.7967 13.2606 21.2376 13.2606 21.7766C13.2606 23.4423 14.4855 24.8634 16.1023 25.2554V26.9212C16.1023 27.4602 16.5432 27.901 17.0822 27.901C17.6211 27.901 18.062 27.4601 18.062 26.9212V25.2554C19.6788 24.8634 20.9037 23.4427 20.9037 21.7766C20.9529 19.7673 19.238 18.1508 17.0821 18.1508Z" fill="#123148"/>
<path d="M43.0008 19.3267H34.5243C33.9853 19.3267 33.5445 19.7676 33.5445 20.3065C33.5445 20.8455 33.9853 21.2864 34.5243 21.2864H40.5506L32.2707 29.5667L25.4111 22.6586C25.0191 22.2666 24.382 22.2666 24.0392 22.6586L6.79279 39.856C6.40078 40.248 6.40078 40.8358 6.79279 41.2279C6.98862 41.4237 7.23367 41.5218 7.47871 41.5218C7.72374 41.5218 7.9688 41.4237 8.16463 41.2279L24.6761 24.7654L31.5846 31.6249C31.7804 31.8208 32.0255 31.9189 32.2705 31.9189C32.5156 31.9189 32.7606 31.8208 32.9564 31.6249L42.0206 22.5608V28.8322C42.0206 29.3712 42.4615 29.812 43.0004 29.812C43.5394 29.812 43.9803 29.3711 43.9803 28.8322V20.3069C43.9803 19.7679 43.5394 19.3271 43.0004 19.3271L43.0008 19.3267Z" fill="#123148"/>
<path d="M14.0444 31.9186L15.7101 30.2528C10.1735 29.5669 5.911 24.8631 5.911 19.1798C5.911 13.0065 10.9086 8.00882 17.082 8.00882C23.2556 8.00848 28.253 13.0061 28.253 19.1308C28.253 20.7966 27.861 22.3646 27.2239 23.7853L28.6939 25.2553C29.6737 23.4425 30.2126 21.3355 30.2126 19.1308C30.2126 11.8796 24.3332 6 17.0818 6C9.83056 5.99966 4 11.9283 4 19.1308C4 25.3533 8.3117 30.5468 14.0441 31.9187L14.0444 31.9186Z" fill="#123148"/>
<path d="M25.6073 26.3331C24.2354 27.9499 22.3735 29.1748 20.2668 29.8119L17.866 32.2128C21.4917 32.017 24.7252 30.302 26.9791 27.7052L25.6073 26.3331Z" fill="#123148"/>
</svg>
