<svg width="47" height="51" viewBox="0 0 47 51" fill="none" xmlns="http://www.w3.org/2000/svg">
<path d="M47 6.37285C47 2.84739 44.3993 0 41.1791 0C37.959 0 35.3583 2.84739 35.3583 6.37285C35.3583 9.89831 37.959 12.7457 41.1791 12.7457C44.3993 12.6776 47 9.83027 47 6.37285ZM37.8978 6.37285C37.8978 4.33888 39.384 2.71216 41.2414 2.71216C43.0992 2.71216 44.585 4.33936 44.585 6.37285C44.585 8.40682 43.0988 10.0335 41.2414 10.0335C39.3836 9.96591 37.8978 8.33866 37.8978 6.37285Z" fill="#D4C4FE"/>
<path d="M23.5311 0.000244141C20.311 0.000244141 17.7102 2.84763 17.7102 6.37309C17.7102 9.89855 20.311 12.7459 23.5311 12.7459C24.7694 12.7459 25.9461 12.3392 26.8747 11.5935L36.225 21.8304C35.6678 22.7795 35.3581 23.9319 35.3581 25.0844C35.3581 28.1351 37.3398 30.6439 39.9405 31.2539V37.5586C37.3397 38.1686 35.3581 40.7449 35.3581 43.728C35.3581 47.2535 37.9588 50.1009 41.1789 50.1009C44.399 50.1009 46.9998 47.2535 46.9998 43.728C46.9998 40.6774 45.0181 38.1686 42.4174 37.5586V31.2539C45.0182 30.6439 46.9998 28.0675 46.9998 25.0844C46.9998 21.559 44.399 18.7116 41.1789 18.7116C40.0023 18.7116 38.8258 19.1183 37.897 19.7964L28.5468 9.5595C29.0422 8.6104 29.3519 7.52553 29.3519 6.37314C29.3519 2.84768 26.7512 0.000244141 23.5311 0.000244141ZM20.1875 6.37309C20.1875 4.33912 21.6737 2.71241 23.5311 2.71241C25.3889 2.71241 26.8747 4.3396 26.8747 6.37309C26.8747 8.40706 25.3884 10.0338 23.5311 10.0338C21.6733 10.0338 20.1875 8.3389 20.1875 6.37309ZM44.5232 43.7959C44.5232 45.8299 43.0369 47.4566 41.1796 47.4566C39.3218 47.4566 37.836 45.8294 37.836 43.7959C37.836 41.7619 39.3222 40.1352 41.1796 40.1352C43.0369 40.2028 44.5232 41.8301 44.5232 43.7959ZM41.2413 21.4236C43.0991 21.4236 44.5849 23.0508 44.5849 25.0843C44.5849 27.1182 43.0986 28.7449 41.2413 28.7449C39.3835 28.7449 37.8977 27.1177 37.8977 25.0843C37.8977 23.0503 39.3836 21.4236 41.2413 21.4236Z" fill="black"/>
<path d="M0.0623311 25.0841C0.0623311 28.6095 2.6631 31.4569 5.88321 31.4569C6.56438 31.4569 7.18381 31.3212 7.74101 31.1178L17.9581 42.3038C17.8341 42.7785 17.7723 43.3205 17.7723 43.8629C17.7723 47.3884 20.3731 50.2358 23.5932 50.2358C26.8133 50.2358 29.4141 47.3884 29.4141 43.8629C29.4141 40.8123 27.4323 38.3035 24.8317 37.6935V31.3888C27.4324 30.7787 29.4141 28.2024 29.4141 25.2193C29.4141 21.6938 26.8133 18.8465 23.5932 18.8465C20.3731 18.8465 17.7723 21.6938 17.7723 25.2193C17.7723 28.27 19.7541 30.7787 22.3548 31.3888V37.6935C21.1164 37.9644 20.0016 38.7783 19.1968 39.795L9.9079 29.6262C10.9605 28.4738 11.6417 26.8465 11.6417 25.084C11.6417 22.0333 9.65999 19.5245 7.05933 18.9145V12.6098C9.6601 11.9998 11.6417 9.42345 11.6417 6.44035C11.6417 2.91489 9.04098 0.0675049 5.82087 0.0675049C2.60077 0.0675049 0 2.91489 0 6.44035C0 9.491 1.98176 11.9998 4.58241 12.6098V18.9145C1.98165 19.5245 0.0623311 22.0334 0.0623311 25.0841ZM20.1873 25.0841C20.1873 23.0501 21.6736 21.4234 23.5309 21.4234C25.3887 21.4234 26.8746 23.0506 26.8746 25.0841C26.8746 27.118 25.3886 28.7447 23.5309 28.7447C21.6732 28.7447 20.1873 27.1179 20.1873 25.0841ZM23.5309 40.2023C25.3887 40.2023 26.8746 41.8295 26.8746 43.863C26.8746 45.897 25.3883 47.5237 23.5309 47.5237C21.6731 47.5237 20.1873 45.8965 20.1873 43.863C20.1873 41.8295 21.6732 40.2023 23.5309 40.2023ZM9.16479 25.0841C9.16479 27.118 7.67853 28.7447 5.82117 28.7447C3.96337 28.7447 2.47755 27.1175 2.47755 25.0841C2.47755 23.0501 3.96381 21.4234 5.82117 21.4234C7.67897 21.4234 9.16479 23.0502 9.16479 25.0841ZM2.53925 6.37265C2.53925 4.33868 4.02551 2.71197 5.88287 2.71197C7.74067 2.71197 9.2265 4.33917 9.2265 6.37265C9.2265 8.40662 7.74023 10.0333 5.88287 10.0333C4.02551 9.96571 2.53925 8.33846 2.53925 6.37265Z" fill="black"/>
<path d="M5.82112 50.1684C9.04123 50.1684 11.642 47.321 11.642 43.7955C11.642 40.2701 9.04123 37.4227 5.82112 37.4227C2.60101 37.4227 0.000244141 40.2701 0.000244141 43.7955C0.0624436 47.321 2.66315 50.1684 5.82112 50.1684ZM5.82112 40.2025C7.67892 40.2025 9.16474 41.8297 9.16474 43.8632C9.16474 45.8972 7.67848 47.5239 5.82112 47.5239C3.96332 47.5239 2.4775 45.8967 2.4775 43.8632C2.53926 41.8297 4.02557 40.2025 5.82112 40.2025Z" fill="#B6EFEF"/>
</svg>
