<svg width="34" height="34" viewBox="0 0 34 34" fill="none" xmlns="http://www.w3.org/2000/svg">
<path d="M31.398 3.94118L16.7006 18.6386L10.5979 12.5399C10.0863 12.0283 9.25406 12.0283 8.74245 12.5399C8.23087 13.0515 8.23087 13.8837 8.74245 14.3953L15.7729 21.4258C16.0309 21.6838 16.3637 21.8085 16.7006 21.8085C17.0375 21.8085 17.3703 21.6797 17.6283 21.4258L33.2573 5.80055C33.7688 5.28897 33.7688 4.45672 33.2573 3.94512C32.7413 3.42918 31.9137 3.42918 31.3978 3.94076L31.398 3.94118Z" fill="#123148"/>
<path d="M16.7132 3.07203C20.0204 3.07203 23.0531 4.25333 25.4284 6.2086L27.2923 4.34477C24.4427 1.91541 20.7568 0.446777 16.7132 0.446777C7.69793 0.447068 0.359985 7.78539 0.359985 16.8C0.359985 25.8147 7.6983 33.1533 16.7132 33.1533C25.7278 33.1533 33.0539 25.815 33.0539 16.8C33.0539 14.6992 32.6586 12.694 31.9265 10.843L29.8674 12.9021C30.2336 14.1377 30.4332 15.4481 30.4332 16.8001C30.4332 24.3713 24.2765 30.5281 16.7179 30.5281C9.14666 30.5281 2.98986 24.3714 2.98986 16.8001C2.98551 9.22891 9.14221 3.07211 16.7134 3.07211L16.7132 3.07203Z" fill="#123148"/>
</svg>
