<svg width="55" height="46" viewBox="0 0 55 46" fill="none" xmlns="http://www.w3.org/2000/svg">
<path d="M52.8436 0.775757H2.15537C1.24341 0.775757 0.499268 1.51404 0.499268 2.43186V36.2236C0.499268 37.1356 1.24341 37.8798 2.15537 37.8798H20.2272V42.3496H14.3712C14.1251 42.3496 13.9212 42.5535 13.9212 42.7996C13.9212 43.0457 14.1251 43.2495 14.3712 43.2495H40.6212C40.8673 43.2495 41.0711 43.0457 41.0711 42.7996C41.0711 42.5535 40.8673 42.3496 40.6212 42.3496H34.7652V37.8798H52.837C53.7489 37.8798 54.4931 37.1356 54.4931 36.2236V2.43186C54.4989 1.51404 53.7555 0.775757 52.8436 0.775757ZM19.9454 31.0822C19.9872 31.0822 20.0354 31.0822 20.0772 31.088C20.7611 31.16 21.2654 31.7841 21.193 32.48C21.157 32.8161 20.995 33.1221 20.7309 33.3322C20.4731 33.5423 20.1429 33.6381 19.819 33.6021C19.1351 33.5301 18.6308 32.9061 18.7032 32.2101C18.7392 31.874 18.9012 31.5681 19.1652 31.358C19.3875 31.178 19.6633 31.0822 19.9454 31.0822ZM19.7294 30.1941C19.3155 30.2359 18.9254 30.392 18.5952 30.662C18.1453 31.0278 17.8632 31.5438 17.8034 32.1201C17.6774 33.3083 18.5354 34.376 19.7172 34.4961C19.7951 34.5019 19.8671 34.5082 19.9453 34.5082C20.4313 34.5082 20.9054 34.3404 21.2892 34.0282C21.7392 33.6624 22.0212 33.1463 22.0811 32.5701C22.1891 31.5443 21.5592 30.6081 20.6171 30.29L21.4993 23.4981C21.9074 23.3901 22.2435 23.306 22.5013 23.2403C22.7533 25.1362 24.1754 26.7685 24.2411 26.8405C24.3252 26.9363 24.4512 26.9903 24.5772 26.9903H24.601C24.7391 26.9844 24.8651 26.9183 24.943 26.8045C24.9488 26.7923 25.3452 26.2646 25.957 25.7004L26.923 27.0263L25.5192 36.98H12.7274C12.8354 33.908 13.4176 27.0919 15.0795 25.91C16.2497 25.0822 18.6855 24.284 20.5576 23.7559L19.7294 30.1941ZM20.3233 9.57228C20.3233 8.26439 20.5514 6.3685 22.5072 4.99439C23.8214 4.07028 24.7451 4.44821 24.7752 4.46035C24.889 4.51434 25.0213 4.51434 25.1351 4.46621C28.0752 3.25421 30.7149 3.66222 32.9829 5.67242C34.1468 6.70451 34.783 8.17442 34.783 9.81253C34.783 10.5504 34.5909 11.2225 34.411 11.6904C34.2728 11.5946 34.1289 11.5226 33.9728 11.4983C33.9669 11.4983 33.9548 11.4983 33.9489 11.4925C33.8589 11.4803 33.7811 11.4983 33.7091 11.5343C33.5651 10.3281 32.8812 8.06009 29.8691 7.56252C27.9489 7.24443 26.9771 7.92245 26.0291 8.5766C25.015 9.27848 24.0671 9.94482 21.7149 9.37473C21.583 9.3446 21.4449 9.37473 21.337 9.45258C21.229 9.5367 21.1628 9.66268 21.1628 9.80038C21.1628 9.84223 21.139 10.7182 21.2348 11.5164C21.229 11.5164 21.2227 11.5105 21.2168 11.5105C21.1507 11.4925 21.085 11.4867 21.013 11.4984C20.905 11.5164 20.7971 11.5582 20.6949 11.6122C20.5275 11.0962 20.3233 10.3344 20.3233 9.57228ZM21.1034 12.4103C21.7576 12.5781 21.9614 12.3981 22.0393 12.3262C22.1774 12.2002 22.2372 12.0144 22.2012 11.8223C22.1113 11.3782 22.0811 10.7902 22.0753 10.3704C24.4274 10.7964 25.5553 10.0163 26.5573 9.32028C27.4274 8.71425 28.1774 8.19238 29.7314 8.45644C33.0373 9.00262 32.8632 12.0984 32.8515 12.2303C32.8393 12.3923 32.9176 12.5484 33.0494 12.6384C33.1876 12.7284 33.3612 12.7405 33.5056 12.6623L33.9317 12.4404C34.1238 12.5965 34.4297 13.0766 34.4297 13.7424C34.4297 14.9306 33.7216 15.0566 33.6739 15.0683C33.4701 15.0683 33.2897 15.2064 33.2357 15.4044C32.4857 18.2663 30.2717 21.1646 27.4877 21.1646C24.7037 21.1646 22.4897 18.2667 21.7397 15.4044C21.6857 15.2064 21.5417 15.0683 21.3375 15.0683C21.2596 15.0562 20.5515 14.9302 20.5515 13.7424C20.5636 13.0284 20.9172 12.5305 21.1034 12.4103ZM27.4993 29.4267L28.5732 36.9807H26.4312L27.4993 29.4267ZM27.4993 26.2945L26.6652 25.1486C26.923 24.9628 27.2051 24.8008 27.4993 24.6685C27.7931 24.8004 28.0752 24.9624 28.3335 25.1486L27.4993 26.2945ZM27.4993 22.0586C28.7055 22.0586 29.8154 21.6087 30.7751 20.8825V21.6685C30.6671 21.7643 30.5592 21.8665 30.4332 21.9866C29.6593 22.7186 28.6034 23.7264 27.4993 23.7264C26.3952 23.7264 25.3393 22.7244 24.5654 21.9866C24.4394 21.8665 24.3314 21.7648 24.2235 21.6685V20.8825C25.1831 21.6086 26.2931 22.0586 27.4993 22.0586ZM23.8092 22.5085C23.8574 22.5504 23.8992 22.5926 23.9473 22.6345C24.5295 23.1865 25.3156 23.9365 26.2392 24.3383C25.5194 24.8242 24.943 25.4181 24.5894 25.8203C24.1575 25.2201 23.4493 24.0625 23.3775 22.8743L23.8092 22.5085ZM28.7654 24.3446C29.6895 23.9424 30.4755 23.1924 31.0573 22.6408C31.1055 22.5927 31.1473 22.5567 31.1954 22.5149L31.6274 22.8869C31.5554 24.0751 30.8472 25.2328 30.4154 25.8329C30.0613 25.4249 29.4853 24.8306 28.7654 24.3446ZM33.8652 42.3564H21.1334V37.8803H33.8717V42.3564H33.8652ZM29.4794 36.9804L28.0694 27.0324L29.0354 25.7065C29.6536 26.2707 30.0432 26.7984 30.0495 26.8106C30.1273 26.9186 30.2533 26.9906 30.3914 26.9965H30.4153C30.5413 26.9965 30.6672 26.9425 30.7514 26.8466C30.8175 26.7746 32.2392 25.1428 32.4911 23.2464C32.7552 23.3125 33.103 23.3962 33.5169 23.5105L33.8409 27.2726C30.6308 29.2945 30.5471 31.7425 30.817 34.9526C30.8111 35.0664 30.835 35.2046 30.9308 35.3305C31.0987 35.5523 31.3929 35.6545 31.8968 35.6545C31.9868 35.6545 32.0889 35.6486 32.1906 35.6423C32.3224 35.8223 32.5024 35.9244 32.6765 35.9361H32.7125C32.9465 35.9361 33.1444 35.7562 33.1624 35.5222C33.1746 35.3364 33.0724 35.1681 32.9163 35.084C33.0661 34.9702 33.1323 34.7781 33.0783 34.586C33.0063 34.3462 32.7485 34.2202 32.5141 34.2922C32.3341 34.3462 32.1663 34.5081 32.0759 34.7421C31.9018 34.7479 31.7821 34.7479 31.7038 34.7362C31.4577 31.7182 31.5657 29.7202 34.4037 27.9741C37.4996 29.192 37.9436 31.1419 38.2136 34.1541C38.1416 34.178 38.0215 34.2022 37.8478 34.2261C37.7219 34.0101 37.5239 33.8842 37.3377 33.8603C37.0857 33.8302 36.8635 34.0043 36.8337 34.2504C36.8099 34.4425 36.9116 34.6224 37.0736 34.7066C36.9296 34.8145 36.8576 35.0004 36.9057 35.1808C36.9597 35.3846 37.1397 35.5168 37.3377 35.5168C37.3736 35.5168 37.4155 35.511 37.4515 35.5047C37.6193 35.4628 37.7754 35.3247 37.8776 35.1268C38.5556 35.0489 38.9214 34.8869 39.0658 34.5986C39.1378 34.4605 39.1378 34.3228 39.1139 34.2085C38.8318 30.9687 38.3279 28.5504 34.7219 27.1404L34.4339 23.7625C36.2997 24.2907 38.7418 25.0884 39.9057 25.9166C41.5677 27.0985 42.1498 33.9146 42.2578 36.9866L29.4789 36.9862L29.4794 36.9804ZM53.5994 36.2246C53.5994 36.6448 53.2575 36.9804 52.8436 36.9804H43.1715C43.0995 34.8204 42.6676 26.7625 40.4415 25.1786C38.4075 23.7326 33.1453 22.4666 32.2995 22.2686L31.6755 21.7346V20.2647C31.6755 20.2107 31.6633 20.1567 31.6453 20.1086C32.7611 18.9564 33.6015 17.4325 34.0451 15.8907C34.5611 15.7166 35.335 15.1646 35.335 13.7366C35.335 13.2867 35.227 12.8547 35.0592 12.4886C35.281 12.0144 35.6891 10.9886 35.6891 9.80669C35.6891 7.90448 34.9391 6.1948 33.5831 4.9949C31.0753 2.77501 28.1711 2.29501 24.9489 3.5669C24.5048 3.44093 23.3769 3.27896 21.9907 4.25077C20.2626 5.46277 19.4226 7.19678 19.4226 9.56067C19.4226 10.7309 19.8186 11.8467 20.0165 12.3389C19.8006 12.7348 19.6625 13.227 19.6625 13.7368C19.6625 15.1589 20.4363 15.711 20.9524 15.8909C21.4023 17.4328 22.2364 18.957 23.3521 20.1088C23.3341 20.1569 23.322 20.2109 23.322 20.2649V21.7348L22.6992 22.2688C21.8471 22.4668 16.5912 23.7328 14.5572 25.1788C12.3252 26.7629 11.8991 34.8208 11.8272 36.9806H2.15545C1.73525 36.9806 1.39959 36.6387 1.39959 36.2247L1.39917 2.43296C1.39917 2.01275 1.74111 1.6771 2.15503 1.6771H52.8433C53.2635 1.6771 53.5991 2.01903 53.5991 2.43296L53.5994 36.2246ZM43.7892 44.7742C43.7892 45.0203 43.5854 45.2241 43.3393 45.2241L11.6593 45.2246C11.4132 45.2246 11.2094 45.0207 11.2094 44.7746C11.2094 44.5285 11.4132 44.3247 11.6593 44.3247H43.3393C43.5854 44.3243 43.7892 44.5286 43.7892 44.7742Z" fill="#123148"/>
</svg>
