<svg width="107" height="54" viewBox="0 0 107 54" fill="none" xmlns="http://www.w3.org/2000/svg">
<path fill-rule="evenodd" clip-rule="evenodd" d="M88.4217 31.7275L79.6104 51.5527H75.3629C74.9368 51.5527 74.5915 51.8986 74.5915 52.3241C74.5915 52.7502 74.9368 53.0955 75.3629 53.0955H80.0987C80.1072 53.0961 80.115 53.0961 80.1235 53.0955H99.0941C99.1026 53.0961 99.1104 53.0961 99.1189 53.0955H102.667C103.094 53.0955 103.439 52.7502 103.439 52.3241C103.439 51.8986 103.094 51.5527 102.667 51.5527H99.6065L90.7957 31.7275H100.619C101.52 31.7275 102.251 30.996 102.251 30.0949V28.374C102.251 27.4728 101.52 26.7413 100.619 26.7413H78.5984C77.6972 26.7413 76.9657 27.4729 76.9657 28.374V30.0949C76.9657 30.996 77.6973 31.7275 78.5984 31.7275H88.4217ZM105.397 53.0964H106.229C106.655 53.0964 107 52.7511 107 52.325C107 51.8994 106.655 51.5536 106.229 51.5536H105.397C104.971 51.5536 104.626 51.8994 104.626 52.325C104.626 52.7511 104.971 53.0964 105.397 53.0964ZM53.9201 51.5536H23.4268V29.3426C23.4268 25.0727 19.9603 21.6063 15.6899 21.6063C11.4212 21.6063 7.95469 25.0729 7.95469 29.3426V51.5536H1.76115C1.33501 51.5536 0.989746 51.8994 0.989746 52.325C0.989746 52.7511 1.33501 53.0964 1.76115 53.0964H70.6145C71.0406 53.0964 71.3865 52.7511 71.3865 52.325C71.3865 51.8994 71.0406 51.5536 70.6145 51.5536H69.3922V29.3426C69.3922 25.0727 65.9257 21.6063 61.6553 21.6063C57.3866 21.6063 53.9201 25.0729 53.9201 29.3426L53.9201 51.5536ZM81.2983 51.5536H88.8366V34.5932L81.2983 51.5536ZM90.38 51.5536H97.9183L90.38 34.5932V51.5536ZM21.882 51.5536V29.3426C21.882 25.9244 19.1067 23.1497 15.6885 23.1497C12.2709 23.1497 9.49682 25.9244 9.49682 29.3426V51.5536H21.882ZM67.8476 51.5536V29.3426C67.8476 25.9244 65.0729 23.1497 61.6541 23.1497C58.2365 23.1497 55.4624 25.9244 55.4624 29.3426V51.5536H67.8476ZM52.722 34.142H24.6206C24.1945 34.142 23.8492 34.4879 23.8492 34.9134C23.8492 35.3396 24.1945 35.6855 24.6206 35.6855H52.722C53.1469 35.6855 53.494 35.3396 53.494 34.9134C53.494 34.4879 53.1469 34.142 52.722 34.142ZM100.707 28.3747V30.0956C100.707 30.1451 100.667 30.1849 100.618 30.1849H78.5969C78.548 30.1849 78.5076 30.1451 78.5076 30.0956V28.3747C78.5076 28.3252 78.548 28.2853 78.5969 28.2853H100.618C100.667 28.2853 100.707 28.3252 100.707 28.3747ZM88.8355 11.9629V14.3235V14.3495V14.7527H88.5386V13.6843C88.5386 13.2588 88.1933 12.9129 87.7672 12.9129C87.341 12.9129 86.9958 13.2588 86.9958 13.6843V15.4649C86.9958 15.6931 87.0954 15.8983 87.2517 16.0395C87.3555 16.1536 87.4895 16.2357 87.638 16.2731C87.6995 16.2882 87.7635 16.2961 87.8263 16.2961H88.8355V18.3139H84.8584C84.6297 18.3139 84.4136 18.416 84.2663 18.5916C84.1203 18.7673 84.0587 18.999 84.1003 19.2242L85.287 25.7534C85.3631 26.1722 85.7645 26.4505 86.1834 26.3745C86.6029 26.2984 86.8817 25.8964 86.8045 25.4769L85.7838 19.8574H93.4307L92.41 25.4769C92.3328 25.8964 92.6117 26.2984 93.0312 26.3745C93.45 26.4505 93.8514 26.1722 93.9269 25.7534L95.1142 19.2242C95.1558 18.9991 95.0955 18.7673 94.9482 18.5916C94.8021 18.416 94.5848 18.3139 94.3555 18.3139H90.379V15.0858C90.8371 15.0919 91.3701 15.1088 91.3701 15.1088C91.5778 15.1136 91.7788 15.0345 91.9266 14.8891C92.0751 14.7442 92.1596 14.545 92.1596 14.3374V13.1501C92.1596 12.7245 91.8144 12.3787 91.3882 12.3787C90.9621 12.3787 90.6162 12.7245 90.6162 13.1501V13.5575C90.5378 13.5569 90.4587 13.5569 90.379 13.5569V11.9629C90.379 11.5373 90.0337 11.1915 89.607 11.1915C89.1808 11.1915 88.8356 11.5373 88.8356 11.9629L88.8355 11.9629ZM62.4262 20.2733V16.3438C62.4262 7.32356 55.1039 0 46.084 0H31.2601C22.2405 0 14.9164 7.32294 14.9164 16.3438V20.2733C14.9164 20.6988 15.2628 21.0447 15.6878 21.0447C16.1139 21.0447 16.4598 20.6988 16.4598 20.2733V16.3438C16.4598 8.1759 23.0921 1.54414 31.2594 1.54414H46.0833C54.2511 1.54414 60.8823 8.1759 60.8823 16.3438V20.2733C60.8823 20.6988 61.2288 21.0447 61.6537 21.0447C62.0798 21.0447 62.4257 20.6988 62.4257 20.2733H62.4262Z" fill="white"/>
</svg>
