<svg width="81" height="51" viewBox="0 0 81 51" fill="none" xmlns="http://www.w3.org/2000/svg">
<path d="M80.1517 10.3722L70.4902 4.19201C70.1511 3.97701 69.7274 3.97701 69.3883 4.19201C69.0493 4.40701 69.0493 4.67572 69.3883 4.89073L78.8803 10.9097L78.5412 22.0877L51.2518 39.3922C50.9974 39.5535 50.9974 39.8759 51.2518 40.037C51.5062 40.1983 52.0146 40.1983 52.2687 40.037L79.8123 22.5713C79.9817 22.4639 79.9817 22.3563 80.0667 22.2489L80.4057 10.6947C80.4057 10.5871 80.3211 10.4797 80.1514 10.3722L80.1517 10.3722Z" fill="white"/>
<path d="M46.5061 42.4016L43.7092 44.1752L10.7415 23.2701L33.6239 8.76011C33.963 8.54511 33.963 8.2764 33.6239 8.0614C33.2849 7.8464 32.8611 7.8464 32.5221 8.0614L9.21587 22.9475L0.656147 28.3753C0.317092 28.5366 0.317092 28.859 0.656147 29.0201L34.217 50.8388C34.3864 50.9462 34.5561 51.0001 34.7255 51.0001C34.8949 51.0001 35.0645 50.9464 35.2339 50.8927L44.1327 45.1962L47.438 43.1003C47.777 42.8853 47.777 42.6166 47.438 42.4016C47.2686 42.1866 46.7601 42.1866 46.5058 42.4016L46.5061 42.4016ZM34.7258 49.8178L2.18193 28.6978L9.72465 23.9149L26.1661 34.3943L42.6923 44.82L34.7258 49.8178Z" fill="white"/>
<path d="M40.0652 4.51442C40.2346 4.51442 40.489 4.46072 40.5737 4.35313L45.6587 1.1287L63.3714 0.967402L64.9817 1.98852C65.3207 2.20352 65.7445 2.20352 66.0836 1.98852C66.4226 1.77352 66.4226 1.50481 66.0836 1.2898L64.2192 0.161294C64.0498 0.053884 63.8801 0 63.7108 0L45.2346 0.215173C45.0652 0.215173 44.8956 0.268878 44.7262 0.322582L39.4718 3.65441C39.1328 3.8157 39.1328 4.08441 39.3871 4.29921L39.4718 4.35291C39.6412 4.46067 39.8106 4.51438 40.065 4.51438L40.0652 4.51442Z" fill="white"/>
<path d="M58.4558 13.919C57.8626 13.489 57.4389 12.9515 57.3539 12.3604C57.3539 12.0917 56.9301 11.9304 56.5911 11.9304C56.1673 11.9304 55.913 12.1454 55.913 12.4141C55.9977 13.2203 56.5911 13.9727 57.4386 14.5101C59.5573 15.8536 62.9473 15.8536 65.0661 14.5101C67.1848 13.1666 67.1848 11.0169 65.0661 9.67342C63.5404 8.706 61.1677 8.3836 59.1336 8.921C58.7945 9.02841 58.5405 9.29712 58.7099 9.51211C58.8792 9.7271 59.303 9.88822 59.642 9.78081C61.6761 9.2434 63.9642 9.78081 64.8117 11.0706C65.4898 12.038 65.1507 13.1666 63.8795 13.919C62.4391 14.9401 59.9814 14.8862 58.4557 13.919L58.4558 13.919Z" fill="white"/>
<path d="M77.5245 27.4079C77.1008 27.4616 76.9314 27.7303 77.0161 27.9453C78.4567 31.8145 76.0839 36.6513 71.1683 39.7682C64.7274 43.8525 55.6591 43.9601 48.1164 40.1443C42.9467 37.5647 41.082 32.2982 43.0314 26.0643C43.1161 25.7956 42.862 25.5806 42.4382 25.5269C42.0145 25.4732 41.6754 25.6343 41.5907 25.903C39.5567 32.4594 41.5907 38.0484 47.1842 40.8966C50.6588 42.7238 55.0659 43.745 59.6424 43.7987C64.3883 43.7987 68.8801 42.5625 72.1853 40.3592C77.4397 37.0274 79.9823 31.8145 78.4569 27.6764C78.2872 27.4614 77.8635 27.354 77.5244 27.4077L77.5245 27.4079Z" fill="white"/>
<path d="M1.0803 12.5217C10.4875 8.81353 21.166 6.77143 32.2682 6.61021C50.0657 6.44891 60.0661 12.5217 60.1509 12.5754C60.3203 12.6828 60.4899 12.6828 60.6593 12.6828C60.8287 12.6828 61.0831 12.6291 61.1678 12.5215C61.4221 12.3602 61.4221 12.0378 61.1678 11.8767C60.744 11.6617 50.913 5.64282 32.9461 5.64282H32.268C20.9115 5.80412 9.89404 7.89984 0.317322 11.7155C-0.0217333 11.8768 -0.106427 12.1455 0.147936 12.3603C0.232629 12.629 0.741071 12.6827 1.08011 12.5216L1.0803 12.5217Z" fill="white"/>
</svg>
